<?xml version="1.0" standalone="no"?><!DOCTYPE svg PUBLIC "-//W3C//DTD SVG 1.1//EN" "http://www.w3.org/Graphics/SVG/1.1/DTD/svg11.dtd"><svg class="icon" width="200px" height="200.00px" viewBox="0 0 1024 1024" version="1.1" xmlns="http://www.w3.org/2000/svg"><path fill="#707070" d="M0 896h128V768H0v128z m128-128h128V640H128v128z m256-256H256v128h128V512z m128-128H384v128h128V384z m128-128H512v128h128V256z m128-128H640v128h128V128zM896 0H768v128h128V0zM384 1024h128V896H384v128z m128-128h128V768H512v128z m128-128h128V640H640v128z m128-128h128V512H768v128z m128-256v128h128V384H896z m-128 640h128V896H768v128z m128-128h128V768H896v128z"  /></svg>