<?xml version="1.0" standalone="no"?><!DOCTYPE svg PUBLIC "-//W3C//DTD SVG 1.1//EN" "http://www.w3.org/Graphics/SVG/1.1/DTD/svg11.dtd"><svg t="1719820429088" class="icon" viewBox="0 0 1024 1024" version="1.1" xmlns="http://www.w3.org/2000/svg" p-id="7799" xmlns:xlink="http://www.w3.org/1999/xlink" width="32" height="32"><path d="M832 753.477818v78.522182H192v-78.568727a31.976727 31.976727 0 1 0-64 0v142.568727h768v-142.568727a31.976727 31.976727 0 1 0-64 0z m-32.023273-337.454545a31.976727 31.976727 0 0 0-45.242182 0l-210.711272 210.711272V160.023273a31.976727 31.976727 0 1 0-64.046546 0v466.711272L269.265455 416.023273a31.976727 31.976727 0 1 0-45.288728 45.242182L512 749.242182l288.023273-287.976727a31.976727 31.976727 0 0 0 0-45.288728z" fill="#333333" p-id="7800"></path></svg>