<?xml version="1.0" standalone="no"?><!DOCTYPE svg PUBLIC "-//W3C//DTD SVG 1.1//EN" "http://www.w3.org/Graphics/SVG/1.1/DTD/svg11.dtd"><svg t="1725101139920" class="icon" viewBox="0 0 1024 1024" version="1.1" xmlns="http://www.w3.org/2000/svg" p-id="91165" xmlns:xlink="http://www.w3.org/1999/xlink" width="32" height="32"><path d="M512.1 63.9c-247.3 0-447.8 200.5-447.8 447.8s200.5 447.8 447.8 447.8S959.9 759 959.9 511.7 759.4 63.9 512.1 63.9zM786.3 786c-35.6 35.6-77.1 63.6-123.3 83.1-47.8 20.2-98.6 30.5-150.9 30.5s-103.2-10.2-150.9-30.5c-46.2-19.5-87.7-47.5-123.3-83.1s-63.6-77.1-83.1-123.3c-20.2-47.8-30.5-98.6-30.5-150.9s10.2-103.2 30.5-150.9c19.5-46.2 47.5-87.7 83.1-123.3C273.5 202 315 174 361.2 154.5 409 134.3 459.8 124 512.1 124s103.2 10.2 150.9 30.5c46.2 19.5 87.7 47.5 123.3 83.1 35.6 35.6 63.6 77.1 83.1 123.3 20.2 47.8 30.5 98.6 30.5 150.9S889.7 615 869.4 662.7c-19.5 46.1-47.5 87.6-83.1 123.3z" fill="#1296db" p-id="91166"></path><path d="M332.1 511.7m-60 0a60 60 0 1 0 120 0 60 60 0 1 0-120 0Z" fill="#1296db" p-id="91167"></path><path d="M512.1 511.7m-60 0a60 60 0 1 0 120 0 60 60 0 1 0-120 0Z" fill="#1296db" p-id="91168"></path><path d="M692 511.7m-60 0a60 60 0 1 0 120 0 60 60 0 1 0-120 0Z" fill="#1296db" p-id="91169"></path></svg>