<?xml version="1.0" standalone="no"?><!DOCTYPE svg PUBLIC "-//W3C//DTD SVG 1.1//EN" "http://www.w3.org/Graphics/SVG/1.1/DTD/svg11.dtd"><svg t="1719820292699" class="icon" viewBox="0 0 1024 1024" version="1.1" xmlns="http://www.w3.org/2000/svg" p-id="7150" xmlns:xlink="http://www.w3.org/1999/xlink" width="32" height="32"><path d="M622.917818 601.367273l4.282182 2.56 3.677091 3.072 181.294545 181.341091v-100.491637c0-11.031273 6.190545-20.852364 15.639273-25.832727l4.189091-1.861818 4.654545-1.163637 4.840728-0.465454a29.323636 29.323636 0 0 1 27.694545 19.874909l1.163637 4.654545 0.465454 4.794182v166.912a32.488727 32.488727 0 0 1-1.070545 8.378182 28.578909 28.578909 0 0 1-13.591273 19.968l-2.839273 1.489455a32.256 32.256 0 0 1-7.168 3.025454l-4.049454 0.930909-5.585455 0.465455h-164.119273a29.323636 29.323636 0 0 1-9.402181-57.018182l4.561454-1.163636 4.840727-0.465455h100.072728l-182.504728-182.458182a28.858182 28.858182 0 0 1-7.121454-28.951272l1.675636-4.235637 2.327273-4.049454 3.118545-3.677091a28.951273 28.951273 0 0 1 32.954182-5.632z m213.643637-466.385455c6.050909 0 11.869091 1.582545 16.756363 4.375273a30.906182 30.906182 0 0 1 8.378182 5.957818c4.235636 4.189091 6.981818 9.588364 7.959273 15.034182l0.837818 4.375273 0.279273 4.514909v166.912a29.323636 29.323636 0 0 1-58.274909 4.328727l-0.325819-4.328727v-100.538182L207.639273 840.238545a28.858182 28.858182 0 0 1-28.951273 7.168l-4.235636-1.675636-4.049455-2.327273-3.677091-3.118545a28.858182 28.858182 0 0 1-5.445818-33.186909l2.327273-4.049455 3.118545-3.677091L772.514909 193.536l-100.072727 0.046545a29.323636 29.323636 0 0 1-27.927273-20.386909l-1.070545-4.561454-0.325819-4.328727a29.323636 29.323636 0 0 1 24.948364-28.997819l4.328727-0.325818h164.165819zM199.68 178.129455l4.282182 2.56 3.677091 3.072 192.372363 192.372363a28.904727 28.904727 0 0 1-33.186909 46.359273l-4.049454-2.327273-3.677091-3.118545-192.372364-192.372364a28.904727 28.904727 0 0 1 32.954182-46.545454z" fill="#2c2c2c" p-id="7151"></path></svg>