<?xml version="1.0" standalone="no"?><!DOCTYPE svg PUBLIC "-//W3C//DTD SVG 1.1//EN" "http://www.w3.org/Graphics/SVG/1.1/DTD/svg11.dtd"><svg t="1719820582533" class="icon" viewBox="0 0 1024 1024" version="1.1" xmlns="http://www.w3.org/2000/svg" p-id="8981" xmlns:xlink="http://www.w3.org/1999/xlink" width="32" height="32"><path d="M896 380.714667v305.664a149.248 149.248 0 0 1-149.12 149.12H347.904v83.84c0 3.498667-0.896 7.552-7.594667 10.922666a12.074667 12.074667 0 0 1-5.546666 1.322667 15.530667 15.530667 0 0 1-8.149334-2.602667l-159.914666-134.570666a14.634667 14.634667 0 0 1-3.669334-14.208c1.152-4.693333 6.229333-8.021333 12.288-8.021334h571.562667a85.888 85.888 0 0 0 85.845333-85.76V380.672H896zM689.194667 128c3.328 0 6.272 1.365333 8.192 2.602667l159.914666 134.570666c3.712 3.84 5.034667 8.874667 3.669334 14.208-1.152 4.693333-6.229333 8.021333-12.288 8.021334H277.12a85.888 85.888 0 0 0-85.802667 85.76v305.749333H128V373.205333a149.290667 149.290667 0 0 1 149.12-149.12h398.976V140.245333c0-3.498667 0.896-7.552 7.594667-10.88a12.032 12.032 0 0 1 5.546666-1.365333z m-145.536 252.714667v298.197333h-63.317334v-234.922667H402.048v-27.008l72.533333-36.266666h69.077334z" p-id="8982"></path></svg>