<?xml version="1.0" standalone="no"?><!DOCTYPE svg PUBLIC "-//W3C//DTD SVG 1.1//EN" "http://www.w3.org/Graphics/SVG/1.1/DTD/svg11.dtd"><svg t="1725282598544" class="icon" viewBox="0 0 1042 1024" version="1.1" xmlns="http://www.w3.org/2000/svg" p-id="43961" xmlns:xlink="http://www.w3.org/1999/xlink" width="32.5625" height="32"><path d="M641.828571 84.114286c-10.971429-7.314286-23.771429-7.314286-36.571428-1.828572l-345.6 182.857143H128c-20.114286 0-36.571429 16.457143-36.571429 36.571429v420.571428c0 20.114286 16.457143 36.571429 36.571429 36.571429h131.657143l345.6 182.857143c5.485714 3.657143 10.971429 3.657143 16.457143 3.657143 7.314286 0 12.8-1.828571 18.285714-5.485715 10.971429-7.314286 18.285714-18.285714 18.285714-31.085714V115.2c0-12.8-5.485714-25.6-16.457143-31.085714zM585.142857 848.457143l-299.885714-159.085714c-5.485714-3.657143-10.971429-3.657143-16.457143-3.657143H164.571429v-347.428572h104.228571c5.485714 0 10.971429-1.828571 16.457143-3.657143L585.142857 175.542857v672.914286zM958.171429 338.285714l-64-32.914285-74.971429 140.8-74.971429-140.8-64 32.914285 96.914286 186.514286L680.228571 713.142857l64 32.914286 74.971429-142.628572 74.971429 142.628572 64-32.914286-96.914286-188.342857 96.914286-186.514286z" p-id="43962" fill="#8a8a8a"></path></svg>