<?xml version="1.0" standalone="no"?><!DOCTYPE svg PUBLIC "-//W3C//DTD SVG 1.1//EN" "http://www.w3.org/Graphics/SVG/1.1/DTD/svg11.dtd"><svg t="1719820446310" class="icon" viewBox="0 0 1024 1024" version="1.1" xmlns="http://www.w3.org/2000/svg" p-id="7965" xmlns:xlink="http://www.w3.org/1999/xlink" width="32" height="32"><path d="M512 113.757091c251.345455 0 455.121455 178.269091 455.121455 398.242909 0 219.927273-203.776 398.242909-455.121455 398.242909-92.718545 0-178.967273-24.296727-250.88-65.954909L115.106909 891.345455a28.439273 28.439273 0 0 1-35.048727-37.841455l50.734545-123.810909C84.061091 667.089455 56.878545 592.290909 56.878545 512 56.878545 292.072727 260.654545 113.757091 512 113.757091z m0 56.925091c-221.509818 0-398.242909 154.624-398.242909 341.317818 0 65.908364 21.876364 129.070545 62.650182 183.621818l19.316363 25.832727-39.749818 97.000728 111.709091-36.072728 21.876364 12.660364c65.163636 37.748364 141.963636 58.274909 222.440727 58.274909 221.509818 0 398.242909-154.624 398.242909-341.317818S733.509818 170.682182 512 170.682182z m0 284.392727a56.878545 56.878545 0 1 1 0 113.803636 56.878545 56.878545 0 0 1 0-113.75709z m-227.560727 0a56.878545 56.878545 0 1 1 0 113.803636 56.878545 56.878545 0 0 1 0-113.75709z m455.121454 0a56.878545 56.878545 0 1 1 0 113.803636 56.878545 56.878545 0 0 1 0-113.75709z" fill="#333333" p-id="7966"></path></svg>