<?xml version="1.0" standalone="no"?><!DOCTYPE svg PUBLIC "-//W3C//DTD SVG 1.1//EN" "http://www.w3.org/Graphics/SVG/1.1/DTD/svg11.dtd"><svg t="1725236565499" class="icon" viewBox="0 0 1048 1024" version="1.1" xmlns="http://www.w3.org/2000/svg" p-id="19312" width="65.5" height="64" xmlns:xlink="http://www.w3.org/1999/xlink"><path d="M508.003655 0C743.473589 0 941.480126 161.567141 999.023903 380.827912c-8.541654 0.949073-17.083309 1.748292-25.350232 2.172877-57.643679 0.124878-86.065909 3.74634-117.959747 13.711603-42.158809 14.785554-67.783772 39.960956-70.85577 67.259284 0.949073 7.143021-17.607796-4.695412 20.829648 81.91996 32.018716 68.75782 58.442898 129.023937 69.107479 152.850657a203.126535 203.126535 0 0 0-178.525572 75.85089c-12.812482 18.282137-17.632772 31.344375-22.428086 55.945339-10.939312 55.970314 9.340873 105.072339 55.370899 142.360906A501.185316 501.185316 0 0 1 507.853801 1023.9995C227.37784 1023.9995 0 794.773466 0 511.99975S227.37784 0 508.003655 0z m532.679545 402.856389c8.56663-8.491703 10.614629-1.223804 5.569558 31.843887-6.518631 33.042716-15.634724 53.447779-37.813055 71.430209-26.099499 20.579892-59.841532 27.57306-104.747656 22.078428l-11.413848-2.322731 46.529538 127.675255c25.425158 70.356258 49.901244 136.991153 52.223975 151.102366 16.608772 63.363091-23.527013 120.557209-97.130099 140.312907-27.223401 8.366825-61.614799 1.498536-66.510017 0.549463-13.212091-2.622438-40.685248-9.740483-55.770509-19.63082-37.013836-27.972669-53.597632-65.535968-45.180856-108.46902 3.546535-18.107308 7.068094-27.697938 16.608772-41.259687a149.329098 149.329098 0 0 1 158.070557-51.025146c17.682723 5.2199 24.22633 6.443704 23.252282 2.872194a400.233951 400.233951 0 0 1-6.318826-13.911408l-2.697365-6.06907c-9.715507-21.803697-26.349255-59.192166-45.655392-100.70161-28.297352-64.037432-51.449731-120.132624-52.099097-125.327548 2.172877-20.155307 21.229258-38.687201 52.223975-49.651488 23.527013-7.242923 44.481539-9.990239 87.064933-10.140093 34.416373-1.648389 75.351378-10.689556 83.79313-19.331113zM508.003655 270.560649c-132.220814 0-239.640859 108.294191-239.640859 241.464077 0 133.169886 107.39507 241.613931 239.640859 241.464077 132.120911 0 239.515981-108.419069 239.51598-241.464077 0-133.169886-107.39507-241.464077-239.51598-241.464077zM511.99975 349.658366a162.341384 162.341384 0 1 1 0 324.682768 162.341384 162.341384 0 0 1-162.341384-162.341384 162.341384 162.341384 0 0 1 162.341384-162.341384z m0 105.147266a57.24407 57.24407 0 0 0-57.194118 57.194118 57.24407 57.24407 0 0 0 57.194118 57.194119 57.24407 57.24407 0 0 0 57.194119-57.194119 57.24407 57.24407 0 0 0-57.194119-57.194118z" fill="#3E3E3E" p-id="19313"></path></svg>