<?xml version="1.0" standalone="no"?><!DOCTYPE svg PUBLIC "-//W3C//DTD SVG 1.1//EN" "http://www.w3.org/Graphics/SVG/1.1/DTD/svg11.dtd"><svg t="1719823825630" class="icon" viewBox="0 0 1024 1024" version="1.1" xmlns="http://www.w3.org/2000/svg" p-id="15717" xmlns:xlink="http://www.w3.org/1999/xlink" width="32" height="32"><path d="M511.998977 113.725134c219.514529 0 398.103974 178.588421 398.103974 398.103974S731.513506 909.933081 511.998977 909.933081 113.895003 731.34466 113.895003 511.829108 292.485471 113.725134 511.998977 113.725134M511.998977 63.961754c-246.947322 0-447.867354 200.919009-447.867354 447.867354s200.920032 447.867354 447.867354 447.867354c246.944252 0 447.867354-200.919009 447.867354-447.867354S758.943228 63.961754 511.998977 63.961754L511.998977 63.961754z" fill="#2c2c2c" p-id="15718"></path><path d="M327.384305 511.829108m-45.216831 0a44.187 44.187 0 1 0 90.433662 0 44.187 44.187 0 1 0-90.433662 0Z" fill="#2c2c2c" p-id="15719"></path><path d="M511.997953 511.829108m-45.216831 0a44.187 44.187 0 1 0 90.433662 0 44.187 44.187 0 1 0-90.433662 0Z" fill="#2c2c2c" p-id="15720"></path><path d="M696.612625 511.829108m-45.216831 0a44.187 44.187 0 1 0 90.433662 0 44.187 44.187 0 1 0-90.433662 0Z" fill="#2c2c2c" p-id="15721"></path></svg>