<?xml version="1.0" standalone="no"?><!DOCTYPE svg PUBLIC "-//W3C//DTD SVG 1.1//EN" "http://www.w3.org/Graphics/SVG/1.1/DTD/svg11.dtd"><svg t="1719910348949" class="icon" viewBox="0 0 1024 1024" version="1.1" xmlns="http://www.w3.org/2000/svg" p-id="63536" xmlns:xlink="http://www.w3.org/1999/xlink" width="32" height="32"><path d="M928.06962662 16.46453453l-53.96501698 0c-25.38601301 0-45.96345113 20.57917348-45.96345118 45.96345116l-1e-8 371.58431665a153.51692036 153.51692036 0 0 0-17.40874167-12.49257694L178.79439826 30.01912798C107.1620767-14.35650431 48.55334035 18.27620977 48.55334035 102.54340459l0 822.80599125c0 84.26719475 57.91807855 115.80665655 128.70356334 70.09309165L812.26991128 585.3271001a154.68305616 154.68305616 0 0 0 15.87124718-11.70474106l0 390.553112c0 25.38427775 20.57743811 45.96171582 45.96345118 45.96171591l53.96501698-1e-8c25.38427775 0 45.96345113-20.57743811 45.96345114-45.9617159L974.03307776 62.42625036c0-25.38427775-20.57917348-45.96171582-45.96345114-45.96171583z" p-id="63537" fill="#1296db"></path></svg>