<?xml version="1.0" standalone="no"?><!DOCTYPE svg PUBLIC "-//W3C//DTD SVG 1.1//EN" "http://www.w3.org/Graphics/SVG/1.1/DTD/svg11.dtd"><svg t="1719820727470" class="icon" viewBox="0 0 1099 1024" version="1.1" xmlns="http://www.w3.org/2000/svg" p-id="9976" xmlns:xlink="http://www.w3.org/1999/xlink" width="34.34375" height="32"><path d="M1056.392154 707.39437a35.991704 35.991704 0 0 1 30.947556 10.581334 37.925926 37.925926 0 0 1 0 52.754963l-237.150815 242.270814a35.991704 35.991704 0 0 1-51.617185 0 37.925926 37.925926 0 0 1 0-52.754962l175.862518-179.730963H35.805487A36.219259 36.219259 0 0 1 0.003413 743.954963c0-20.176593 16.042667-36.560593 35.802074-36.560593h1020.586667zM975.116895 243.370667L799.102673 63.715556a37.925926 37.925926 0 0 1 0-52.717037 36.02963 36.02963 0 0 1 51.655111 0l237.264592 242.194962a37.850074 37.850074 0 0 1 0 52.792889 36.02963 36.02963 0 0 1-30.795852 10.581334H35.805487A36.219259 36.219259 0 0 1 0.003413 279.969185c0-20.214519 16.042667-36.598519 35.802074-36.598518h939.311408z" fill="#000000" p-id="9977"></path></svg>