<?xml version="1.0" standalone="no"?><!DOCTYPE svg PUBLIC "-//W3C//DTD SVG 1.1//EN" "http://www.w3.org/Graphics/SVG/1.1/DTD/svg11.dtd"><svg t="1719910384644" class="icon" viewBox="0 0 1024 1024" version="1.1" xmlns="http://www.w3.org/2000/svg" p-id="66347" xmlns:xlink="http://www.w3.org/1999/xlink" width="32" height="32"><path d="M95.93037338 1007.53546547l53.96501698 0c25.38601301 0 45.96345113-20.57917348 45.96345118-45.96345116l0-371.58431665a153.51692036 153.51692036 0 0 0 17.40874168 12.49257694L845.20560174 993.98087202C916.83792331 1038.35650431 975.44665965 1005.72379023 975.44665965 921.45659541l0-822.80599125c0-84.26719475-57.91807855-115.80665655-128.70356334-70.09309165L211.73008872 438.6728999a154.68305616 154.68305616 0 0 0-15.87124718 11.70474106l0-390.553112c0-25.38427774-20.57743811-45.96171582-45.96345118-45.96171591l-53.96501698 0c-25.38427774 0-45.96345113 20.57743811-45.96345114 45.96171591L49.96692224 961.57374964c0 25.38427774 20.57917348 45.96171582 45.96345114 45.96171583z" p-id="66348" fill="#1296db"></path></svg>