<?xml version="1.0" standalone="no"?><!DOCTYPE svg PUBLIC "-//W3C//DTD SVG 1.1//EN" "http://www.w3.org/Graphics/SVG/1.1/DTD/svg11.dtd"><svg t="1719903250260" class="icon" viewBox="0 0 1024 1024" version="1.1" xmlns="http://www.w3.org/2000/svg" p-id="8729" xmlns:xlink="http://www.w3.org/1999/xlink" width="32" height="32"><path d="M731.428571 305.115429A268.190476 268.190476 0 0 0 292.571429 512v341.333333h-73.142858V512a341.272381 341.272381 0 0 1 512-295.558095v88.673524z" fill="#2c2c2c" opacity=".1" p-id="8730"></path><path d="M926.47619 902.095238h-73.142857a73.142857 73.142857 0 0 1-73.142857-73.142857V463.238095a268.190476 268.190476 0 0 0-536.380952 0v365.714286a73.142857 73.142857 0 0 1-73.142857 73.142857H97.52381a73.142857 73.142857 0 0 1-73.142858-73.142857V585.142857a73.142857 73.142857 0 0 1 73.142858-73.142857h73.142857v-48.761905a341.333333 341.333333 0 0 1 682.666666 0v48.761905h73.142857a73.142857 73.142857 0 0 1 73.142858 73.142857v243.809524a73.142857 73.142857 0 0 1-73.142858 73.142857zM170.666667 609.52381a24.380952 24.380952 0 0 0-24.380953-24.380953h-24.380952a24.380952 24.380952 0 0 0-24.380952 24.380953v195.047619a24.380952 24.380952 0 0 0 24.380952 24.380952h24.380952a24.380952 24.380952 0 0 0 24.380953-24.380952V609.52381z m755.809523 0a24.380952 24.380952 0 0 0-24.380952-24.380953h-24.380952a24.380952 24.380952 0 0 0-24.380953 24.380953v195.047619a24.380952 24.380952 0 0 0 24.380953 24.380952h24.380952a24.380952 24.380952 0 0 0 24.380952-24.380952V609.52381z" fill="#2c2c2c" p-id="8731"></path><path d="M694.857143 743.619048h-66.681905l-24.015238 74.081523a38.92419 38.92419 0 1 1-76.8 0.828953l-44.982857-123.416381-6.582857 20.248381a33.28 33.28 0 0 1-6.339048 11.556571A36.412952 36.412952 0 0 1 438.857143 743.619048H316.952381a36.571429 36.571429 0 0 1 0-73.142858h96.548571l30.476191-93.647238c0.24381-0.621714 0.487619-1.145905 0.731428-1.743238a36.571429 36.571429 0 0 1 70.095239-4.973714l49.005714 134.826667 2.072381-6.204953A97.926095 97.926095 0 0 1 621.714286 670.47619h73.142857a36.571429 36.571429 0 0 1 0 73.142858z" fill="#2c2c2c" p-id="8732"></path></svg>