<?xml version="1.0" standalone="no"?><!DOCTYPE svg PUBLIC "-//W3C//DTD SVG 1.1//EN" "http://www.w3.org/Graphics/SVG/1.1/DTD/svg11.dtd"><svg class="icon" width="32px" height="32.00px" viewBox="0 0 1024 1024" version="1.1" xmlns="http://www.w3.org/2000/svg"><path fill="#8a8a8a" d="M476.15 912.72c-19.07 0-37.97-4.87-54.67-14.07L157.21 752.98c-36.13-19.92-58.58-57.92-58.58-99.18V370.26c0-41.26 22.45-79.27 58.58-99.18l264.26-145.67c26.49-14.6 57.09-18.02 86.15-9.61 29.06 8.41 53.11 27.63 67.71 54.12a113.51 113.51 0 0 1 14.07 54.67v574.87c0 62.45-50.8 113.26-113.25 113.26zM193.66 337.2a37.75 37.75 0 0 0-19.53 33.06v283.53a37.75 37.75 0 0 0 19.53 33.06l264.26 145.67a37.843 37.843 0 0 0 18.22 4.69c20.82 0 37.75-16.94 37.75-37.75V224.59c0-6.36-1.62-12.66-4.69-18.22-4.87-8.83-12.88-15.24-22.57-18.04-9.69-2.8-19.89-1.66-28.72 3.2L193.66 337.2zM693.96 700.79c-12.24 0-24.24-5.94-31.5-16.9-11.52-17.38-6.76-40.81 10.62-52.32 36.9-24.45 58.06-61.08 58.06-100.48 0-39.59-21.32-76.32-58.5-100.77-17.42-11.46-22.25-34.87-10.8-52.29 11.46-17.42 34.87-22.25 52.29-10.8 27.77 18.27 50.88 42.37 66.81 69.69 16.81 28.83 25.7 61.39 25.7 94.16 0 32.64-8.82 65.08-25.51 93.83-15.82 27.25-38.76 51.31-66.35 69.6-6.42 4.24-13.66 6.28-20.82 6.28zM807.47 814.04c-10.92 0-21.74-4.71-29.21-13.81-13.22-16.12-10.88-39.91 5.24-53.13 29.84-24.48 54.6-56.59 71.6-92.84 17.94-38.26 27.04-79.66 27.04-123.03 0-43.54-9.17-85.08-27.24-123.46-17.13-36.37-42.06-68.52-72.1-92.98-16.17-13.17-18.6-36.94-5.44-53.11 13.17-16.17 36.94-18.6 53.11-5.44 38.75 31.56 70.82 72.83 92.73 119.36 22.85 48.52 34.44 100.88 34.44 155.63 0 54.53-11.5 106.71-34.18 155.08-21.75 46.38-53.58 87.59-92.07 119.16a37.602 37.602 0 0 1-23.92 8.57z" /></svg>