<?xml version="1.0" standalone="no"?><!DOCTYPE svg PUBLIC "-//W3C//DTD SVG 1.1//EN" "http://www.w3.org/Graphics/SVG/1.1/DTD/svg11.dtd"><svg t="1725244122975" class="icon" viewBox="0 0 1024 1024" version="1.1" xmlns="http://www.w3.org/2000/svg" p-id="89209" xmlns:xlink="http://www.w3.org/1999/xlink" width="32" height="32"><path d="M531.456 798.72c-11.264 0-21.504-3.072-30.72-9.216L332.8 683.008h-72.704c-40.96 0-74.752-33.792-74.752-75.776V416.768c0-41.984 33.792-75.776 74.752-75.776h72.704l167.936-106.496c13.312-8.192 28.672-11.264 44.032-7.168 15.36 3.072 27.648 12.288 35.84 26.624 6.144 9.216 9.216 20.48 9.216 30.72v456.704c-1.024 30.72-26.624 57.344-58.368 57.344zM259.072 371.712c-24.576 0-44.032 20.48-44.032 45.056v190.464c0 24.576 19.456 45.056 44.032 45.056h81.92l175.104 111.616c4.096 3.072 9.216 4.096 14.336 4.096 15.36 0 26.624-12.288 26.624-27.648V283.648c0-5.12-1.024-10.24-4.096-15.36-4.096-6.144-10.24-10.24-17.408-12.288-7.168-2.048-14.336 0-20.48 3.072l-174.08 112.64h-81.92zM780.288 655.36c-2.048 0-5.12-1.024-7.168-2.048-4.096-4.096-5.12-10.24-1.024-14.336 30.72-35.84 47.104-80.896 47.104-126.976s-16.384-91.136-47.104-125.952c-4.096-4.096-3.072-11.264 1.024-14.336 4.096-4.096 10.24-3.072 14.336 1.024 33.792 38.912 51.2 88.064 51.2 140.288 0 51.2-18.432 101.376-51.2 140.288-1.024 1.024-4.096 2.048-7.168 2.048zM672.768 655.36c-2.048 0-5.12-1.024-7.168-2.048-4.096-4.096-5.12-10.24-1.024-14.336 29.696-34.816 47.104-79.872 47.104-126.976 0-46.08-16.384-91.136-47.104-126.976-4.096-4.096-3.072-11.264 1.024-14.336 4.096-4.096 10.24-3.072 14.336 1.024 33.792 38.912 51.2 88.064 51.2 140.288s-18.432 101.376-51.2 140.288c-1.024 2.048-4.096 3.072-7.168 3.072z" p-id="89210" fill="#1296db"></path></svg>