<?xml version="1.0" standalone="no"?><!DOCTYPE svg PUBLIC "-//W3C//DTD SVG 1.1//EN" "http://www.w3.org/Graphics/SVG/1.1/DTD/svg11.dtd"><svg class="icon" width="32px" height="32.00px" viewBox="0 0 1024 1024" version="1.1" xmlns="http://www.w3.org/2000/svg"><path fill="#1296db" d="M475.4 914.7c-21.9 0-43-6.4-61.1-18.6L212.4 772.7c-2.1-1.3-4.5-2-7-2h-95.6C49.2 770.8 0 721.6 0 661.1V368.5C0 308 49.2 258.8 109.7 258.8h95.1c2.6 0 5.1-0.7 7.2-2.1l202-128.6c24.2-16.4 53.3-22.4 82-16.9 28.9 5.5 53.9 22 70.4 46.4 12.3 18.2 18.7 39.7 18.7 62.3v585c0 60.6-49.2 109.8-109.7 109.8zM109.7 331.9c-20.2 0-36.6 16.4-36.6 36.6v292.6c0 20.2 16.4 36.6 36.6 36.6h95.6c15.9 0 31.5 4.4 45.1 12.7L454 834.6l0.8 0.5c6.1 4.2 13.3 6.4 20.7 6.4 20.2 0 36.6-16.4 36.6-36.6V220c0-8-2.2-15.4-6.2-21.4-5.5-8.1-13.8-13.6-23.5-15.5-9.6-1.8-19.4 0.2-27.5 5.8l-1 0.7-202.5 128.8c-13.9 8.9-30 13.5-46.5 13.5h-95.2zM938.9 682.9c-9.3 0-18.7-3.6-25.8-10.7L644.3 403.5c-14.3-14.3-14.3-37.4 0-51.7 14.3-14.3 37.4-14.3 51.7 0l268.7 268.7c14.3 14.3 14.3 37.4 0 51.7-7.2 7.1-16.5 10.7-25.8 10.7zM670.1 682.9c-9.3 0-18.7-3.6-25.8-10.7-14.3-14.3-14.3-37.4 0-51.7L913 351.8c14.3-14.3 37.4-14.3 51.7 0 14.3 14.3 14.3 37.4 0 51.7L696 672.2c-7.2 7.1-16.5 10.7-25.9 10.7z" /></svg>