<?xml version="1.0" standalone="no"?><!DOCTYPE svg PUBLIC "-//W3C//DTD SVG 1.1//EN" "http://www.w3.org/Graphics/SVG/1.1/DTD/svg11.dtd"><svg t="1728533865609" class="icon" viewBox="0 0 1024 1024" version="1.1" xmlns="http://www.w3.org/2000/svg" p-id="30156" xmlns:xlink="http://www.w3.org/1999/xlink" width="200" height="200"><path d="M870.4 716.8a51.2 51.2 0 0 1 5.9904 102.0416L870.4 819.2H153.6a51.2 51.2 0 0 1-5.9904-102.0416L153.6 716.8h716.8z m0-256a51.2 51.2 0 0 1 5.9904 102.0416L870.4 563.2H153.6a51.2 51.2 0 0 1-5.9904-102.0416L153.6 460.8h716.8zM392.3968 115.3536a51.2 51.2 0 0 1 8.192 67.1744l-3.9424 5.12-136.4992 153.6a51.2 51.2 0 0 1-71.936 4.5056l-4.608-4.5568-68.2496-76.8a51.2 51.2 0 0 1 71.936-72.5504l4.608 4.5568 29.952 33.6896 98.304-110.4896a51.2 51.2 0 0 1 72.2432-4.2496zM870.4 204.8a51.2 51.2 0 0 1 5.9904 102.0416L870.4 307.2h-358.4a51.2 51.2 0 0 1-5.9904-102.0416L512 204.8h358.4z" fill="#8a8a8a" p-id="30157"></path></svg>