<?xml version="1.0" standalone="no"?><!DOCTYPE svg PUBLIC "-//W3C//DTD SVG 1.1//EN" "http://www.w3.org/Graphics/SVG/1.1/DTD/svg11.dtd"><svg t="1719901447870" class="icon" viewBox="0 0 1024 1024" version="1.1" xmlns="http://www.w3.org/2000/svg" p-id="7601" xmlns:xlink="http://www.w3.org/1999/xlink" width="32" height="32"><path d="M897.986245 271.059962 837.751236 271.059962C837.751236 271.059962 837.751236 271.059962 837.751236 271.059962 837.751236 231.756619 812.512767 198.687598 777.516227 186.249069L777.516227 355.870856C777.516227 355.870856 777.516227 355.870856 777.516227 355.870856L777.516227 418.605618C777.516227 418.605618 777.516227 418.605618 777.516227 418.605618L777.516227 481.882495C777.516227 483.960603 776.733171 485.797771 776.311526 487.755409 776.672936 490.827394 777.516227 493.77891 777.516227 496.941248 777.516227 555.158384 716.829455 602.322397 641.987455 602.322397 567.145456 602.322397 506.458684 555.158384 506.458684 496.941248 506.458684 438.724111 567.085221 391.590216 641.866985 391.529981L642.04769 391.529981C648.462719 391.529981 654.305515 393.005739 660.509721 393.698441 659.545961 393.035856 658.732788 392.222684 657.799145 391.529981L717.281217 391.529981 717.281217 123.514307C727.009171 121.526551 737.068418 120.472439 747.398722 120.472439 830.553152 120.472439 897.986245 187.875414 897.986245 271.059962 897.986245 271.059962 897.986245 271.059962 897.986245 271.059962ZM641.987455 451.764991C600.395181 451.764991 566.693694 471.973836 566.693694 496.941248 566.693694 521.878542 600.395181 542.117505 641.987455 542.117505 683.579729 542.117505 717.281217 521.878542 717.281217 496.941248 717.281217 471.973836 683.579729 451.764991 641.987455 451.764991ZM446.223675 180.707448C363.069244 180.707448 295.636151 258.681668 295.636151 354.84686L295.636151 578.770508C295.636151 674.965818 363.069244 752.940038 446.223675 752.940038 502.965054 752.940038 551.785529 716.196682 577.445643 662.587524L648.191661 662.587524C622.26049 749.65723 541.696165 813.175047 446.223675 813.175047 329.789401 813.175047 235.401142 718.786787 235.401142 602.322397L235.401142 331.264854C235.401142 214.860698 329.789401 120.472439 446.223675 120.472439 562.657948 120.472439 657.046208 214.860698 657.046208 331.264854L657.046208 331.294972 594.763208 331.294972C584.734079 246.363608 522.420962 180.707448 446.223675 180.707448ZM446.223675 0.00242C446.28391 0.00242 446.314027 0.00242 446.374262 0.00242L446.073087 0.00242C446.133322 0.00242 446.16344 0.00242 446.223675 0.00242ZM446.223675 873.410057C553.080581 873.410057 645.240146 804.109678 689.36229 703.607565 688.03712 700.204287 687.163712 696.560069 687.163712 692.705028 687.163712 681.380847 693.638976 671.92395 702.854932 666.773857 703.276577 665.328217 703.96928 664.033164 704.390925 662.587524L717.220982 662.587524C717.2511 662.587524 717.2511 662.587524 717.281217 662.587524 717.311335 662.587524 717.311335 662.587524 717.341452 662.587524L766.643807 662.587524C732.249617 808.115306 617.140514 918.224904 476.341179 932.109073L476.341179 993.880076C476.341179 1010.504938 462.848537 1023.99758 446.223675 1023.99758 429.598812 1023.99758 416.10617 1010.504938 416.10617 993.880076L416.10617 932.109073C275.306835 918.224904 160.197732 808.115306 125.803542 662.587524L175.105897 662.587524C175.136015 662.587524 175.136015 662.587524 175.166132 662.587524 175.19625 662.587524 175.19625 662.587524 175.226367 662.587524L188.056424 662.587524C188.478069 664.033164 189.140654 665.328217 189.592417 666.773857 198.808373 671.92395 205.283637 681.380847 205.283637 692.705028 205.283637 696.560069 204.410229 700.204287 203.085059 703.607565 247.207203 804.109678 339.366768 873.410057 446.223675 873.410057Z" p-id="7602"></path></svg>