<?xml version="1.0" standalone="no"?><!DOCTYPE svg PUBLIC "-//W3C//DTD SVG 1.1//EN" "http://www.w3.org/Graphics/SVG/1.1/DTD/svg11.dtd"><svg t="1719901187810" class="icon" viewBox="0 0 1024 1024" version="1.1" xmlns="http://www.w3.org/2000/svg" p-id="1945" xmlns:xlink="http://www.w3.org/1999/xlink" width="32" height="32"><path d="M162.9 327l332.7 192c5.1 3 10.7 4.3 16.2 4.3h0.4c5.5 0.1 11.1-1.3 16.2-4.3l332.7-192c15.3-8.8 20.5-28.3 11.7-43.6s-28.3-20.5-43.6-11.7L512 454.9 194.8 271.7c-15.3-8.8-34.8-3.6-43.6 11.7-8.8 15.3-3.6 34.8 11.7 43.6z" p-id="1946"></path><path d="M900.4 191.8H124c-33.1 0-60 19.2-60 42.9v554.2c0 23.7 26.9 42.9 60 42.9h776.3c33.1 0 60-19.2 60-42.9V234.7c0.1-23.7-26.8-42.9-59.9-42.9z m-4 575.9H128V255.8h768.3v511.9z" p-id="1947"></path></svg>