<?xml version="1.0" standalone="no"?><!DOCTYPE svg PUBLIC "-//W3C//DTD SVG 1.1//EN" "http://www.w3.org/Graphics/SVG/1.1/DTD/svg11.dtd"><svg t="1728532714158" class="icon" viewBox="0 0 1024 1024" version="1.1" xmlns="http://www.w3.org/2000/svg" p-id="10981" xmlns:xlink="http://www.w3.org/1999/xlink" width="200" height="200"><path d="M384 181.333333A202.666667 202.666667 0 0 0 181.333333 384v213.333333A202.666667 202.666667 0 0 0 384 800h213.333333A202.666667 202.666667 0 0 0 800 597.333333v-21.333333a53.333333 53.333333 0 1 1 106.666667 0v21.333333A309.333333 309.333333 0 0 1 597.333333 906.666667H384A309.333333 309.333333 0 0 1 74.666667 597.333333V384A309.333333 309.333333 0 0 1 384 74.666667h21.333333a53.333333 53.333333 0 1 1 0 106.666666H384z m416 51.370667V384a53.333333 53.333333 0 1 0 106.666667 0V170.666667A96 96 0 0 0 810.666667 74.666667h-213.333334a53.333333 53.333333 0 1 0 0 106.666666h68.352c-26.453333 15.36-54.357333 33.578667-80.341333 54.357334-63.829333 51.072-95.36 114.688-110.933333 164.394666a361.984 361.984 0 0 0-13.653334 62.634667 285.184 285.184 0 0 0-2.090666 26.88c-0.213333 28.970667 24.064 54.4 53.333333 54.4a53.333333 53.333333 0 0 0 53.333333-52.992V490.666667l0.128-2.645334c0.128-2.56 0.426667-6.698667 1.109334-12.074666 1.365333-10.794667 4.138667-26.282667 9.685333-44.032 11.093333-35.626667 32.896-78.677333 75.733333-112.938667 37.333333-29.866667 81.493333-54.570667 117.333334-72.021333 11.434667-5.589333 21.845333-10.368 30.677333-14.250667z" fill="#8a8a8a" p-id="10982"></path></svg>