<?xml version="1.0" standalone="no"?><!DOCTYPE svg PUBLIC "-//W3C//DTD SVG 1.1//EN" "http://www.w3.org/Graphics/SVG/1.1/DTD/svg11.dtd"><svg t="1728533418272" class="icon" viewBox="0 0 1024 1024" version="1.1" xmlns="http://www.w3.org/2000/svg" p-id="14240" xmlns:xlink="http://www.w3.org/1999/xlink" width="200" height="200"><path d="M598.4 640c3.2 25.6 28.8 38.4 38.4 41.6 3.2 0 54.4 16 150.4 44.8 32 9.6 54.4 28.8 60.8 54.4l12.8 38.4c0 6.4 3.2 9.6 3.2 16 0 35.2-35.2 60.8-76.8 60.8H236.8c-6.4 0-22.4-3.2-28.8-3.2-41.6-9.6-57.6-38.4-44.8-73.6l12.8-38.4c9.6-25.6 32-48 60.8-54.4l160-51.2c6.4-3.2 28.8-9.6 28.8-41.6 0-19.2-9.6-35.2-32-51.2-60.8-54.4-76.8-102.4-76.8-163.2 0-16-3.2-41.6 0-57.6 12.8-51.2 16-86.4 54.4-124.8 19.2-19.2 38.4-35.2 76.8-60.8s102.4-76.8 182.4-38.4c-3.2 32-3.2 83.2 9.6 99.2 6.4 9.6 54.4 28.8 67.2 64 12.8 57.6 9.6 92.8 12.8 115.2 0 60.8-22.4 121.6-89.6 169.6-22.4 19.2-32 35.2-32 54.4z" p-id="14241" fill="#1296db"></path></svg>