<?xml version="1.0" standalone="no"?><!DOCTYPE svg PUBLIC "-//W3C//DTD SVG 1.1//EN" "http://www.w3.org/Graphics/SVG/1.1/DTD/svg11.dtd"><svg t="1729523164599" class="icon" viewBox="0 0 1024 1024" version="1.1" xmlns="http://www.w3.org/2000/svg" p-id="69489" xmlns:xlink="http://www.w3.org/1999/xlink" width="32" height="32"><path d="M341.333333 64a42.666667 42.666667 0 0 1 42.56 39.466667L384 106.666667v810.666666c0 39.210667-48 57.130667-73.813333 29.162667l-2.176-2.517333-170.666667-213.333334a42.666667 42.666667 0 0 1 64.341333-55.936l2.304 2.645334L298.666667 795.712V106.666667a42.666667 42.666667 0 0 1 39.466666-42.56L341.333333 64z m372.48 13.504l2.176 2.517333 170.666667 213.333334a42.666667 42.666667 0 0 1-64.341333 55.936l-2.304-2.645334L725.333333 228.309333V917.333333a42.666667 42.666667 0 0 1-39.466666 42.56L682.666667 960a42.666667 42.666667 0 0 1-42.56-39.466667L640 917.333333V106.666667c0-39.210667 48-57.130667 73.813333-29.162667z" fill="#707070" p-id="69490"></path></svg>