<?xml version="1.0" standalone="no"?><!DOCTYPE svg PUBLIC "-//W3C//DTD SVG 1.1//EN" "http://www.w3.org/Graphics/SVG/1.1/DTD/svg11.dtd"><svg t="1728533815660" class="icon" viewBox="0 0 1024 1024" version="1.1" xmlns="http://www.w3.org/2000/svg" p-id="25448" xmlns:xlink="http://www.w3.org/1999/xlink" width="200" height="200"><path d="M512 32a480 480 0 1 0 0 960 480 480 0 0 0 0-960z m0 64a416 416 0 1 1 0 832 416 416 0 0 1 0-832z" fill="#1296db" p-id="25449"></path><path d="M512 672a160 160 0 1 1 0-320 160 160 0 0 1 0 320z m0-64a96 96 0 1 0 0-192 96 96 0 0 0 0 192zM864 512a352 352 0 0 0-337.856-351.744L512 160c9.408 39.04 32.768 63.296 70.016 72.576a288.384 288.384 0 0 1 212.672 224.192c6.272 32.256 29.44 50.688 69.312 55.232zM512 864c-5.824-39.04-27.2-62.72-64.064-71.168A288.384 288.384 0 0 1 230.4 572.928C223.296 539.776 199.808 519.424 160 512A352.128 352.128 0 0 0 512 864z" fill="#1296db" p-id="25450"></path><path d="M864 512a352 352 0 0 0-337.856-351.744L512 160c9.408 39.04 32.768 63.296 70.016 72.576a288.384 288.384 0 0 1 212.672 224.192c6.272 32.256 29.44 50.688 69.312 55.232zM512 864c-5.824-39.04-27.2-62.72-64.064-71.168A288.384 288.384 0 0 1 230.4 572.928C223.296 539.776 199.808 519.424 160 512A352.128 352.128 0 0 0 512 864z" fill="#1296db" p-id="25451"></path></svg>