<?xml version="1.0" standalone="no"?><!DOCTYPE svg PUBLIC "-//W3C//DTD SVG 1.1//EN" "http://www.w3.org/Graphics/SVG/1.1/DTD/svg11.dtd"><svg t="1719906604389" class="icon" viewBox="0 0 1024 1024" version="1.1" xmlns="http://www.w3.org/2000/svg" p-id="48363" xmlns:xlink="http://www.w3.org/1999/xlink" width="32" height="32"><path d="M916.945455 246.690909c0-18.618182-18.618182-32.581818-37.236364-32.581818h-153.6v-13.963636C726.109091 88.436364 628.363636 0 512 0 395.636364 0 297.890909 88.436364 297.890909 200.145455v13.963636H144.290909c-18.618182 0-32.581818 13.963636-37.236364 32.581818l-46.545454 740.072727c0 9.309091 4.654545 18.618182 9.309091 27.927273 4.654545 4.654545 13.963636 9.309091 23.272727 9.309091h837.818182c9.309091 0 18.618182-4.654545 27.927273-9.309091 4.654545-9.309091 9.309091-18.618182 9.309091-27.927273L916.945455 246.690909z m-549.236364-46.545454c0-69.818182 65.163636-130.327273 144.290909-130.327273 79.127273 0 144.290909 55.854545 144.290909 130.327273v13.963636H367.709091v-13.963636zM130.327273 954.181818l46.545454-670.254545h121.018182v111.709091h69.818182V283.927273h288.581818v111.709091h69.818182V283.927273h121.018182l41.890909 670.254545H130.327273z" p-id="48364"></path></svg>