<?xml version="1.0" standalone="no"?><!DOCTYPE svg PUBLIC "-//W3C//DTD SVG 1.1//EN" "http://www.w3.org/Graphics/SVG/1.1/DTD/svg11.dtd"><svg t="1719906393301" class="icon" viewBox="0 0 1024 1024" version="1.1" xmlns="http://www.w3.org/2000/svg" p-id="33004" xmlns:xlink="http://www.w3.org/1999/xlink" width="32" height="32"><path d="M512 581.82573c-114.162162 0-136.994595 69.798054-136.994595 139.623784s22.832432 209.449514 45.664865 256C443.502703 1024 466.335135 1024 466.335135 1024h91.32973s22.832432 0 45.664865-46.550486 45.664865-186.17427 45.664865-256c0-69.82573-22.832432-139.623784-136.994595-139.623784z m50.231351 374.673297c-6.863568 11.623784-11.430054 18.62573-13.699459 20.950487h-73.063784c-2.269405-2.324757-6.863568-9.299027-13.699459-20.950487-18.265946-37.223784-41.098378-167.548541-41.098379-235.049513 0-69.82573 22.832432-93.073297 91.32973-93.073298 68.497297 0 91.32973 23.247568 91.32973 93.073298 0 67.500973-22.832432 197.82573-41.098379 235.049513zM512 0C260.843243 0 55.351351 209.449514 55.351351 465.449514c0 197.82573 123.295135 367.726703 294.552217 435.2-2.297081-18.62573-6.863568-34.899027-9.132973-53.524757A420.974703 420.974703 0 0 1 101.016216 465.504865c0-230.427676 184.956541-418.926703 410.983784-418.926703 226.054919 0 410.983784 188.499027 410.983784 418.899027 0 167.576216-98.193297 314.17427-239.754379 379.350487-2.269405 18.62573-4.566486 37.223784-9.132973 53.524756C847.650595 833.176216 968.648649 663.275243 968.648649 465.504865 968.648649 209.449514 763.156757 0 512 0z m0 535.247568c63.930811 0 114.162162-51.2 114.162162-116.348541 0-65.148541-50.231351-116.348541-114.162162-116.348541s-114.162162 51.2-114.162162 116.348541c0 65.176216 50.231351 116.376216 114.162162 116.376216z m0-186.146595c38.801297 0 68.497297 30.249514 68.497297 69.798054 0 39.576216-29.696 69.82573-68.497297 69.82573-38.801297 0-68.497297-30.249514-68.497297-69.82573 0-39.576216 29.668324-69.798054 68.497297-69.798054z m146.127568 248.998054c9.132973 11.623784 15.996541 25.6 22.832432 41.900973 63.930811-51.2 105.029189-130.352432 105.029189-221.100973 0-153.6-123.295135-279.247568-273.989189-279.247568s-273.989189 125.647568-273.989189 279.247568c0 88.451459 41.098378 167.576216 105.029189 218.776216 4.566486-16.300973 13.699459-30.249514 22.832432-41.900973-50.231351-41.873297-82.196757-104.724757-82.196756-176.847567 0-128.027676 102.759784-232.752432 228.324324-232.752433 125.592216 0 228.324324 104.724757 228.324324 232.752433 0 72.122811-31.965405 137.271351-82.196756 179.172324z" fill="#3A3A3A" p-id="33005"></path></svg>