<?xml version="1.0" standalone="no"?><!DOCTYPE svg PUBLIC "-//W3C//DTD SVG 1.1//EN" "http://www.w3.org/Graphics/SVG/1.1/DTD/svg11.dtd"><svg t="1725233387237" class="icon" viewBox="0 0 1170 1024" version="1.1" xmlns="http://www.w3.org/2000/svg" p-id="11313" xmlns:xlink="http://www.w3.org/1999/xlink" width="36.5625" height="32"><path d="M1133.447837 838.494041c-15.030857 67.474286-96.156735 138.595265-173.630694 152.095347-249.788082 40.500245-499.570939 40.500245-749.348572 0-77.473959-13.500082-158.599837-84.621061-173.641142-152.095347-45.134367-217.657469-45.134367-435.320163 0-652.982857C51.858286 118.036898 132.989388 46.900245 210.468571 33.410612c249.772408-40.500245 499.56049-40.500245 749.348572 0 77.46351 13.489633 158.589388 84.621061 173.630694 152.100572 45.144816 217.657469 45.144816 435.325388 0 652.982857z" fill="#FF566B" p-id="11314"></path><path d="M929.959184 491.102041m-73.142857 0a73.142857 73.142857 0 1 0 146.285714 0 73.142857 73.142857 0 1 0-146.285714 0Z" fill="#F8F8F8" p-id="11315"></path><path d="M748.209633 187.883102h-173.134368a64.929959 64.929959 0 0 0-63.043918 80.467592l53.232326 215.849796a205.656816 205.656816 0 0 0-17.575183-0.778449c-105.059265 0-190.537143 79.114449-190.537143 176.347428 0 97.23298 85.467429 176.347429 190.537143 176.347429 105.059265 0 190.526694-79.114449 190.526694-176.347429 0-1.525551-0.088816-3.030204-0.120164-4.55053a64.888163 64.888163 0 0 0-1.593469-18.755919 163.113796 163.113796 0 0 0-7.659102-31.237224l-70.891102-287.498449h90.253061c35.845224 0 64.91951-29.069061 64.91951-64.924735 0.005224-35.850449-29.058612-64.91951-64.914285-64.91951z" fill="#FFFFFF" p-id="11316"></path></svg>