<?xml version="1.0" standalone="no"?><!DOCTYPE svg PUBLIC "-//W3C//DTD SVG 1.1//EN" "http://www.w3.org/Graphics/SVG/1.1/DTD/svg11.dtd"><svg t="1719906532074" class="icon" viewBox="0 0 1024 1024" version="1.1" xmlns="http://www.w3.org/2000/svg" p-id="44370" xmlns:xlink="http://www.w3.org/1999/xlink" width="32" height="32"><path d="M615.975385 434.018462l0.590769 0.17723 2.185846 0.866462 0.689231 0.334769c39.266462 20.125538 74.732308 48.541538 104.487384 83.534769a19.692308 19.692308 0 1 1-30.011077 25.521231 310.823385 310.823385 0 0 0-63.744-57.107692L630.153846 748.307692a118.153846 118.153846 0 1 1-39.384615-88.044307V452.529231 452.923077c0-1.555692 0.196923-3.072 0.512-4.529231l0.728615-2.363077 0.315077-0.787692a19.554462 19.554462 0 0 1 1.831385-3.347692l1.437538-1.890462 1.949539-1.949538 2.166153-1.634462 1.890462-1.083077 2.008615-0.886154 1.988923-0.610461 1.476924-0.315077 1.417846-0.196923L610.461538 433.230769l1.260308 0.039385 1.772308 0.196923 2.481231 0.551385zM512 669.538462a78.769231 78.769231 0 1 0 0 157.538461 78.769231 78.769231 0 0 0 0-157.538461z m0-531.692308c126.897231 0 231.778462 94.562462 244.066462 216.536615l0.334769 4.017231 5.316923 0.078769c99.958154 2.737231 180.637538 81.624615 183.433846 179.751385L945.230769 543.507692c0 102.340923-84.657231 185.107692-188.849231 185.107693a19.692308 19.692308 0 1 1 0-39.384616c82.628923 0 149.464615-65.339077 149.464616-145.723077s-66.835692-145.723077-149.464616-145.723077a153.403077 153.403077 0 0 0-16.679384 0.905847 19.692308 19.692308 0 0 1-21.661539-17.092924l-0.17723-2.284307-0.059077-6.321231C715.047385 264.329846 623.852308 177.230769 512 177.230769c-111.911385 0-202.791385 87.04-205.804308 194.756923l-0.078769 5.494154 0.039385 1.004308a19.692308 19.692308 0 0 1-21.819077 20.204308 155.372308 155.372308 0 0 0-16.699077-0.905847C184.989538 397.784615 118.153846 463.123692 118.153846 543.507692S184.989538 689.230769 267.618462 689.230769a19.692308 19.692308 0 1 1 0 39.384616C163.446154 728.615385 78.769231 645.848615 78.769231 543.507692c0-100.568615 81.762462-182.252308 183.492923-185.028923l5.297231-0.078769 0.334769-3.800615c11.874462-119.808 113.526154-213.740308 238.08-216.674462L512 137.846154z" p-id="44371"></path></svg>