<?xml version="1.0" standalone="no"?><!DOCTYPE svg PUBLIC "-//W3C//DTD SVG 1.1//EN" "http://www.w3.org/Graphics/SVG/1.1/DTD/svg11.dtd"><svg t="1719905756946" class="icon" viewBox="0 0 1024 1024" version="1.1" xmlns="http://www.w3.org/2000/svg" p-id="10798" xmlns:xlink="http://www.w3.org/1999/xlink" width="32" height="32"><path d="M908.8 214.4c-9.6-12.8-19.2-22.4-28.8-32-112-115.2-230.4-105.6-342.4-16-9.6 6.4-19.2 16-28.8 25.6-9.6-9.6-19.2-16-28.8-25.6-112-86.4-230.4-99.2-342.4 16-9.6 9.6-19.2 19.2-25.6 32-134.4 195.2-60.8 387.2 137.6 560 44.8 38.4 89.6 73.6 137.6 102.4 16 9.6 32 19.2 44.8 28.8 9.6 6.4 12.8 9.6 19.2 9.6 3.2 3.2 6.4 3.2 12.8 6.4 3.2 3.2 9.6 3.2 16 6.4 25.6 6.4 64 3.2 89.6-12.8 3.2 0 9.6-3.2 16-9.6 12.8-6.4 28.8-16 44.8-28.8 48-28.8 92.8-64 137.6-102.4 201.6-176 275.2-368 140.8-560zM736 732.8c-41.6 35.2-86.4 70.4-131.2 99.2-16 9.6-28.8 19.2-44.8 25.6-6.4 3.2-12.8 6.4-16 9.6-6.4 3.2-16 6.4-25.6 9.6h-28.8s-3.2 0-3.2-3.2c-3.2 0-6.4-3.2-9.6-3.2-3.2-3.2-9.6-6.4-16-9.6-12.8-6.4-28.8-16-44.8-25.6-44.8-28.8-89.6-60.8-131.2-99.2C105.6 576 41.6 412.8 153.6 246.4c6.4-9.6 16-16 22.4-25.6 89.6-96 182.4-86.4 275.2-12.8 9.6 6.4 16 12.8 22.4 19.2l28.8 32 6.4 6.4 16-16c12.8-12.8 25.6-25.6 41.6-38.4C659.2 137.6 752 128 841.6 224c6.4 9.6 16 16 22.4 25.6 118.4 156.8 54.4 323.2-128 483.2z" fill="" p-id="10799"></path></svg>