<?xml version="1.0" standalone="no"?><!DOCTYPE svg PUBLIC "-//W3C//DTD SVG 1.1//EN" "http://www.w3.org/Graphics/SVG/1.1/DTD/svg11.dtd"><svg t="1719906464824" class="icon" viewBox="0 0 1024 1024" version="1.1" xmlns="http://www.w3.org/2000/svg" p-id="37873" xmlns:xlink="http://www.w3.org/1999/xlink" width="32" height="32"><path d="M640 551.253333l-162.346667-93.653333a53.12 53.12 0 0 0-79.573333 46.08v187.306667a52.693333 52.693333 0 0 0 26.453333 46.08 52.266667 52.266667 0 0 0 53.12 0L640 643.413333a53.333333 53.333333 0 0 0 0-92.16z m-21.333333 55.04l-162.346667 93.866667a10.24 10.24 0 0 1-10.453333 0 10.666667 10.666667 0 0 1-5.12-9.173333v-187.306667a10.666667 10.666667 0 0 1 5.12-9.173333 11.946667 11.946667 0 0 1 5.333333-1.28 10.026667 10.026667 0 0 1 5.12 1.28l162.346667 93.866666a10.453333 10.453333 0 0 1 0 17.92z" fill="#333333" p-id="37874"></path><path d="M810.666667 298.666667h-142.293334l109.013334-112.853334a21.333333 21.333333 0 0 0 0-30.08 21.333333 21.333333 0 0 0-30.293334 0L609.066667 298.666667h-200.533334l-137.813333-142.506667a21.333333 21.333333 0 0 0-30.72 29.653333L349.226667 298.666667H213.333333a85.333333 85.333333 0 0 0-85.333333 85.333333v426.666667a85.333333 85.333333 0 0 0 85.333333 85.333333h597.333334a85.333333 85.333333 0 0 0 85.333333-85.333333V384a85.333333 85.333333 0 0 0-85.333333-85.333333z m42.666666 512a42.666667 42.666667 0 0 1-42.666666 42.666666H213.333333a42.666667 42.666667 0 0 1-42.666666-42.666666V384a42.666667 42.666667 0 0 1 42.666666-42.666667h597.333334a42.666667 42.666667 0 0 1 42.666666 42.666667z" fill="#333333" p-id="37875"></path></svg>