<?xml version="1.0" standalone="no"?><!DOCTYPE svg PUBLIC "-//W3C//DTD SVG 1.1//EN" "http://www.w3.org/Graphics/SVG/1.1/DTD/svg11.dtd"><svg t="1719906303452" class="icon" viewBox="0 0 1024 1024" version="1.1" xmlns="http://www.w3.org/2000/svg" p-id="25839" xmlns:xlink="http://www.w3.org/1999/xlink" width="32" height="32"><path d="M512 850.944c-186.88 0-338.944-152.064-338.944-338.944S325.12 173.056 512 173.056v-40.96c-209.408 0-379.904 170.496-379.904 379.904s170.496 379.904 379.904 379.904 379.904-170.496 379.904-379.904h-40.96c0 186.88-152.064 338.944-338.944 338.944z" fill="#2c2c2c" p-id="25840"></path><path d="M513.024 627.2c-62.976 0-113.664-51.2-113.664-113.664S450.56 399.36 513.024 399.36s113.664 51.2 113.664 113.664-50.688 114.176-113.664 114.176z m0-186.88C473.088 440.32 440.32 473.088 440.32 513.024s32.768 72.704 72.704 72.704 72.704-32.768 72.704-72.704S553.472 440.32 513.024 440.32zM765.952 199.168c-36.864 0-67.072-30.208-67.072-67.072s30.208-67.072 67.072-67.072 67.072 30.208 67.072 67.072-30.208 67.072-67.072 67.072z m0-93.696c-14.336 0-26.112 11.776-26.112 26.112s11.776 26.112 26.112 26.112 26.112-11.776 26.112-26.112-11.776-26.112-26.112-26.112z" fill="#2c2c2c" p-id="25841"></path><path d="M588.51328 506.7264l115.23072-363.06432 39.04 12.3904-115.23072 363.0592z" fill="#2c2c2c" p-id="25842"></path></svg>