<?xml version="1.0" standalone="no"?><!DOCTYPE svg PUBLIC "-//W3C//DTD SVG 1.1//EN" "http://www.w3.org/Graphics/SVG/1.1/DTD/svg11.dtd"><svg t="1719906257394" class="icon" viewBox="0 0 1024 1024" version="1.1" xmlns="http://www.w3.org/2000/svg" p-id="24634" xmlns:xlink="http://www.w3.org/1999/xlink" width="32" height="32"><path d="M705.896083 0H359.529581C244.427555 0 143.157136 91.542188 143.157136 206.667267v781.946871c0 13.531923 11.526339 25.911211 23.721207 31.835749 12.171814 5.901486 28.585322 4.356956 39.258712-4.011166l325.619091-255.123998 325.181089 255.123998c6.362539 5.002431 14.315714 7.561279 22.084467 7.561279 5.279063 0 5.302116-1.175687 10.212337-3.550113 12.194867-5.924538 14.661504-18.280774 14.661504-31.835749V206.667267C903.895543 91.542188 821.021162 0 705.896083 0zM834.737506 906.707969l-281.680685-222.112562c-6.270329-4.933273-13.301396-7.39991-20.839622-7.399909s-23.006574 2.466637-29.276902 7.399909L212.315173 906.707969V213.744439C212.315173 139.376497 289.149752 92.210716 363.517695 92.210716H701.954075C776.322017 92.210716 834.737506 139.376497 834.737506 213.744439v692.96353z" p-id="24635" fill="#2c2c2c"></path><path d="M781.624133 349.755245a21.715624 21.715624 0 0 0-0.852949-4.679693c-0.507159-1.544529-1.267897-2.881585-2.051688-4.287799-0.484106-0.852949-0.645475-1.821162-1.267898-2.604952-0.276632-0.368843-0.69158-0.530212-0.991265-0.876002-1.037371-1.244845-2.282215-2.166952-3.573165-3.158217-1.129581-0.876002-2.166952-1.775056-3.411797-2.397479-1.244845-0.645475-2.604953-0.94516-3.96506-1.360108-1.567582-0.461054-3.042954-0.922107-4.679694-1.037371-0.461054-0.046105-0.829896-0.276632-1.29095-0.299684l-161.276542-3.273481-52.975057-152.447366a23.075732 23.075732 0 0 0-43.54651 0.046106l-52.975056 152.447366-161.276543 3.27348a23.052679 23.052679 0 0 0-13.462764 41.402611l128.726159 97.581991-46.935254 154.268527a23.052679 23.052679 0 0 0 35.201441 25.634579l132.483746-92.026294 132.460693 92.026294a22.983521 22.983521 0 0 0 26.718055-0.276632 23.052679 23.052679 0 0 0 8.483386-25.357947l-46.935254-154.268527 128.726159-97.581991c0.391896-0.299685 0.553264-0.737686 0.94516-1.060423 0.991265-0.852949 1.728951-1.89032 2.558847-2.904637 1.129581-1.360108 2.23611-2.651058 3.019901-4.195588 0.530212-1.060423 0.760738-2.213057 1.129581-3.365691a22.19973 22.19973 0 0 0 1.19874-5.140747c0.023053-0.438001 0.276632-0.806844 0.276632-1.244845 0.069158-0.991265-0.34579-1.867267-0.461054-2.83548z m-186.150382 116.392977l32.296803 106.134534-91.081135-63.279604c-0.138316-0.092211-0.322738-0.092211-0.461053-0.184422-1.521477-1.014318-3.250428-1.521477-4.956326-2.143899-1.152634-0.414948-2.190005-1.083476-3.342639-1.314003-1.452319-0.276632-2.92769-0.069158-4.403062-0.069158s-2.950743-0.207474-4.403061 0.069158c-1.152634 0.230527-2.213057 0.899054-3.342639 1.314003-1.705898 0.622422-3.434849 1.129581-4.956326 2.143899-0.138316 0.092211-0.322738 0.092211-0.461053 0.184422l-91.081135 63.279604 32.273751-106.134534a23.052679 23.052679 0 0 0-8.137596-25.081315l-88.683656-67.221612 110.998649-2.259163a23.052679 23.052679 0 0 0 21.300676-15.468347l36.49239-104.958848 36.492391 104.958848a23.029626 23.029626 0 0 0 21.300676 15.468347l110.998649 2.259163-88.706709 67.221612a23.121837 23.121837 0 0 0-8.137595 25.081315z" p-id="24636" fill="#2c2c2c"></path></svg>