<?xml version="1.0" standalone="no"?><!DOCTYPE svg PUBLIC "-//W3C//DTD SVG 1.1//EN" "http://www.w3.org/Graphics/SVG/1.1/DTD/svg11.dtd"><svg t="1719906340114" class="icon" viewBox="0 0 1024 1024" version="1.1" xmlns="http://www.w3.org/2000/svg" p-id="29426" xmlns:xlink="http://www.w3.org/1999/xlink" width="32" height="32"><path d="M731.428571 73.142857a219.428571 219.428571 0 0 1 219.428572 219.428572v438.857142a219.428571 219.428571 0 0 1-219.428572 219.428572H292.571429a219.428571 219.428571 0 0 1-219.428572-219.428572V292.571429a219.428571 219.428571 0 0 1 219.428572-219.428572h438.857142z m0 73.142857H292.571429a146.285714 146.285714 0 0 0-146.285715 146.285715v438.857142a146.285714 146.285714 0 0 0 146.285715 146.285715h438.857142a146.285714 146.285714 0 0 0 146.285715-146.285715V292.571429a146.285714 146.285714 0 0 0-146.285715-146.285715zM537.746286 298.057143c5.412571 4.534857 10.898286 10.971429 16.457143 19.090286 5.632 8.192 12.507429 17.481143 20.699428 27.794285 8.192 10.386286 19.309714 20.553143 33.28 30.573715 11.995429 9.142857 22.454857 15.725714 31.451429 19.748571l25.161143 10.971429c7.826286 3.437714 15.506286 7.533714 23.113142 12.288 7.606857 4.827429 15.945143 12.580571 25.161143 23.405714a66.56 66.56 0 0 1 16.822857 32.182857c1.974857 11.190857 2.048 21.357714 0.292572 30.573714a59.245714 59.245714 0 0 1-8.777143 22.381715c-3.949714 5.851429-7.314286 8.484571-10.166857 8.045714-2.779429-0.365714-5.266286-2.340571-7.460572-5.924572a54.418286 54.418286 0 0 1-5.12-19.748571c-1.974857-15.506286-7.094857-27.062857-15.286857-34.377143-8.192-7.314286-20.845714-12.653714-38.034285-15.872a109.933714 109.933714 0 0 1-47.689143-21.796571 350.939429 350.939429 0 0 1-34.377143-30.793143c-8.850286-8.411429-15.652571-11.410286-20.48-8.996572-4.754286 2.413714-7.168 6.802286-7.168 13.165715v92.086857c0 7.241143-0.146286 2.194286-0.292572 22.381714a73.654857 73.654857 0 0 1-0.219428 7.168l-0.073143 94.134857c0.365714 9.581714-1.097143 20.260571-4.461714 32.036572-3.437714 11.702857-9.801143 22.820571-19.236572 33.206857-9.362286 10.313143-21.869714 19.236571-37.449143 26.550857-15.579429 7.387429-34.962286 11.702857-58.148571 12.873143a125.293714 125.293714 0 0 1-63.853714-12.507429c-19.017143-9.581714-33.645714-21.650286-44.032-36.205714A78.994286 78.994286 0 0 1 292.571429 634.660571c0.219429-17.334857 7.68-33.645714 22.454857-48.786285 14.848-15.140571 30.793143-25.673143 47.981714-31.670857a170.715429 170.715429 0 0 1 92.598857-6.582858c12.580571 2.779429 21.942857 5.339429 27.867429 7.753143v-62.098285c0-47.030857 0.219429-100.059429 0.585143-159.085715 0-11.556571 2.998857-20.992 8.996571-28.379428 5.997714-7.387429 14.043429-11.702857 23.990857-12.873143a25.014857 25.014857 0 0 1 20.699429 5.12z" p-id="29427"></path></svg>