<?xml version="1.0" standalone="no"?><!DOCTYPE svg PUBLIC "-//W3C//DTD SVG 1.1//EN" "http://www.w3.org/Graphics/SVG/1.1/DTD/svg11.dtd"><svg t="1729488801542" class="icon" viewBox="0 0 1024 1024" version="1.1" xmlns="http://www.w3.org/2000/svg" p-id="60728" xmlns:xlink="http://www.w3.org/1999/xlink" width="32" height="32"><path d="M1020.14772 401.803156a73.692177 73.692177 0 0 0-59.004939-48.349491l-266.418179-39.613945-115.801993-240.435528A74.172152 74.172152 0 0 0 511.982081 31.99834c-28.670513 0-54.74916 16.159162-66.940527 41.405852l-115.801993 240.435528-266.450178 39.613945A73.596182 73.596182 0 0 0 3.848441 401.803156a70.620337 70.620337 0 0 0 17.183108 73.116208l195.253872 194.933887-45.277652 270.417972a71.164308 71.164308 0 0 0 30.334427 70.492344 75.228098 75.228098 0 0 0 78.363935 4.191782L511.982081 889.905836l232.307949 125.049513a75.740071 75.740071 0 0 0 78.363935-4.191782 71.196307 71.196307 0 0 0 30.302428-70.492344l-45.309649-270.417972 195.317868-194.933887c19.294999-19.294999 25.918655-47.517535 17.183108-73.116208z m-265.362234 217.780703a70.908322 70.908322 0 0 0-20.062959 61.88479l45.309649 270.417972-232.307949-124.985516a75.548081 75.548081 0 0 0-71.51629 0l-232.307949 124.985516 45.30965-270.417972a70.780328 70.780328 0 0 0-20.030961-61.88479L73.924806 424.649971l266.418179-39.677941a73.788172 73.788172 0 0 0 55.773107-40.573896L511.982081 104.026604l115.833991 240.403529a73.916166 73.916166 0 0 0 55.741109 40.573895l266.482176 39.677942-195.253871 194.901889z" fill="#2c2c2c" p-id="60729"></path></svg>