<?xml version="1.0" standalone="no"?><!DOCTYPE svg PUBLIC "-//W3C//DTD SVG 1.1//EN" "http://www.w3.org/Graphics/SVG/1.1/DTD/svg11.dtd"><svg t="1729472152515" class="icon" viewBox="0 0 1024 1024" version="1.1" xmlns="http://www.w3.org/2000/svg" p-id="5618" xmlns:xlink="http://www.w3.org/1999/xlink" width="32" height="32"><path d="M470.463283 151.67488l-77.66016 159.3344a130.82624 130.82624 0 0 1-94.33088 69.30432l-0.57344 0.12288-177.02912 24.69888h-0.32768c-12.86144 1.6384-23.63392 10.89536-28.30336 25.14944-4.62848 14.1312-1.4336 27.48416 8.11008 36.20864l0.4096 0.4096 127.71328 123.57632 0.24576 0.24576c30.80192 30.80192 43.66336 74.1376 37.15072 113.00864l-0.12288 0.90112-36.94592 176.49664c-5.07904 28.672 25.8048 52.26496 53.37088 37.60128l0.32768-0.2048 158.9248-81.5104c35.6352-20.56192 80.11776-18.47296 115.54816-0.77824l0.4096 0.2048 160.07168 82.08384 0.32768 0.2048c27.68896 14.7456 58.69568-9.13408 53.28896-37.96992l-0.08192-0.53248-28.83584-177.11104-0.08192-0.4096c-6.10304-42.72128 6.84032-81.46944 37.35552-111.98464l0.24576-0.24576 126.93504-122.83904c23.18336-23.47008 8.06912-59.10528-19.00544-62.464l-0.32768-0.04096-176.45568-24.61696h-0.12288c-44.56448-6.38976-77.04576-32.93184-95.35488-69.55008l-0.24576-0.4096-77.98784-160.07168-0.12288-0.36864c-11.38688-24.3712-49.39776-29.61408-66.56 1.55648z m147.98848-40.01792l77.53728 159.21152c6.26688 12.36992 14.70464 18.55488 27.36128 20.39808h0.08192l175.7184 24.53504c103.6288 13.23008 145.69472 141.06624 70.94272 215.77728l-0.24576 0.24576-126.976 122.88c-10.15808 10.24-13.59872 20.56192-11.63264 34.85696l28.50816 175.18592c18.6368 101.82656-89.088 183.95136-184.03328 133.65248l-159.21152-81.63328c-13.14816-6.51264-25.14944-4.62848-30.22848-1.59744l-1.26976 0.8192-160.80896 82.41152c-95.10912 50.3808-203.03872-32.1536-183.9104-134.22592l0.08192-0.49152 36.74112-175.47264a41.53344 41.53344 0 0 0-11.8784-33.54624L38.949683 532.48c-77.45536-71.76192-32.07168-203.61216 70.0416-216.6784l175.14496-24.45312a40.83712 40.83712 0 0 0 27.97568-20.48L390.181683 110.592l0.4096-0.69632c48.49664-90.9312 181.82144-96.17408 227.86048 1.76128z" p-id="5619" fill="#1296db"></path></svg>