<?xml version="1.0" standalone="no"?><!DOCTYPE svg PUBLIC "-//W3C//DTD SVG 1.1//EN" "http://www.w3.org/Graphics/SVG/1.1/DTD/svg11.dtd"><svg t="1729488747735" class="icon" viewBox="0 0 1024 1024" version="1.1" xmlns="http://www.w3.org/2000/svg" p-id="59479" xmlns:xlink="http://www.w3.org/1999/xlink" width="32" height="32"><path d="M896 138.66666667H128c-38.4 0-64 25.6-64 64V746.66666667c0 38.4 25.6 64 64 64h128v128c83.2 0 166.4-44.8 256-128h384c38.4 0 64-25.6 64-64V202.66666667c0-38.4-25.6-64-64-64z m0 608H486.4l-19.2 19.2c-51.2 51.2-102.4 83.2-147.2 96V746.66666667H128V202.66666667h768V746.66666667z" p-id="59480" fill="#2c2c2c"></path><path d="M320 477.86666667m-64 0a64 64 0 1 0 128 0 64 64 0 1 0-128 0Z" p-id="59481" fill="#2c2c2c"></path><path d="M512 477.86666667m-64 0a64 64 0 1 0 128 0 64 64 0 1 0-128 0Z" p-id="59482" fill="#2c2c2c"></path><path d="M704 477.86666667m-64 0a64 64 0 1 0 128 0 64 64 0 1 0-128 0Z" p-id="59483" fill="#2c2c2c"></path></svg>