<?xml version="1.0" standalone="no"?><!DOCTYPE svg PUBLIC "-//W3C//DTD SVG 1.1//EN" "http://www.w3.org/Graphics/SVG/1.1/DTD/svg11.dtd"><svg t="1729487745473" class="icon" viewBox="0 0 1024 1024" version="1.1" xmlns="http://www.w3.org/2000/svg" p-id="15166" xmlns:xlink="http://www.w3.org/1999/xlink" width="32" height="32"><path d="M262.72 320l48.32 483.2a32 32 0 0 0 31.808 28.8h338.24a32 32 0 0 0 31.872-28.8L761.28 320h-498.56zM825.6 320l-48.96 489.6A96 96 0 0 1 681.152 896H342.848a96 96 0 0 1-95.488-86.4L198.4 320h-38.4a32 32 0 0 1 0-64h172.16l37.504-74.88A96.064 96.064 0 0 1 455.552 128h112.896a96 96 0 0 1 85.888 53.12L691.776 256H864a32 32 0 0 1 0 64h-38.4zM620.16 256l-23.04-46.336A32 32 0 0 0 568.384 192H455.552a32 32 0 0 0-28.608 17.664L403.776 256h216.448z m-12.16 512a32 32 0 0 0 32-32v-320a32 32 0 0 0-64 0v320a32 32 0 0 0 32 32z m-192-384a32 32 0 0 0-32 32v320a32 32 0 0 0 64 0v-320a32 32 0 0 0-32-32z" fill="#2c2c2c" p-id="15167"></path></svg>