<?xml version="1.0" standalone="no"?><!DOCTYPE svg PUBLIC "-//W3C//DTD SVG 1.1//EN" "http://www.w3.org/Graphics/SVG/1.1/DTD/svg11.dtd"><svg t="1729425967658" class="icon" viewBox="0 0 1024 1024" version="1.1" xmlns="http://www.w3.org/2000/svg" p-id="19377" xmlns:xlink="http://www.w3.org/1999/xlink" width="32" height="32"><path d="M511.296022 642.123934a60.7981 60.7981 0 0 1-43.070654-17.727446L238.40855 394.579669a24.383238 24.383238 0 0 1 34.494922-34.430924l229.688822 229.752821a12.47961 12.47961 0 0 0 17.343458 0l229.75282-229.752821a24.31924 24.31924 0 1 1 34.430924 34.430924l-229.75282 229.816819a60.926096 60.926096 0 0 1-43.070654 17.727446z" fill="#707070" p-id="19378"></path><path d="M511.296022 633.036218a24.383238 24.383238 0 0 1-24.383238-24.31924V24.351239a24.31924 24.31924 0 0 1 48.702478 0v584.301741a24.31924 24.31924 0 0 1-24.31924 24.383238z" fill="#707070" p-id="19379"></path><path d="M852.085372 998.208806H170.442674A170.682666 170.682666 0 0 1 0.016 827.782132v-535.663261a170.682666 170.682666 0 0 1 170.426674-170.426674 24.31924 24.31924 0 1 1 0 48.63848A121.91619 121.91619 0 0 0 48.718478 292.054873v535.599263c0 67.133902 54.654292 121.724196 121.724196 121.724196H852.14937a121.852192 121.852192 0 0 0 121.660198-121.724196V292.118871A121.852192 121.852192 0 0 0 852.14937 170.394675a24.31924 24.31924 0 1 1 0-48.63848 170.618668 170.618668 0 0 1 170.426674 170.426674v535.599263a170.682666 170.682666 0 0 1-170.490672 170.426674z" fill="#707070" p-id="19380"></path></svg>