<?xml version="1.0" standalone="no"?><!DOCTYPE svg PUBLIC "-//W3C//DTD SVG 1.1//EN" "http://www.w3.org/Graphics/SVG/1.1/DTD/svg11.dtd"><svg t="1729487800917" class="icon" viewBox="0 0 1053 1024" version="1.1" xmlns="http://www.w3.org/2000/svg" p-id="18873" xmlns:xlink="http://www.w3.org/1999/xlink" width="32.90625" height="32"><path d="M522.527103 671.820561a80.388785 80.388785 0 0 1-57.420561-23.606231L239.890343 422.998131a45.298442 45.298442 0 1 1 63.800623-63.800623l218.836137 218.836137 218.198131-218.836137a47.850467 47.850467 0 0 1 31.900311-13.398131 45.298442 45.298442 0 0 1 31.900312 13.398131 44.660436 44.660436 0 0 1 0 63.800623l-225.2162 225.216199a79.112773 79.112773 0 0 1-56.782554 23.606231z" fill="#1296db" p-id="18874"></path><path d="M522.527103 662.888474a45.298442 45.298442 0 0 1-45.298443-45.298443v-574.205607A45.298442 45.298442 0 0 1 522.527103 0a44.660436 44.660436 0 0 1 44.660436 45.298442v574.205608a44.660436 44.660436 0 0 1-44.660436 45.298442z" fill="#1296db" p-id="18875"></path><path d="M191.401869 1020.809969a191.401869 191.401869 0 0 1-191.401869-188.211838V307.519003a191.401869 191.401869 0 0 1 191.401869-188.211838 45.298442 45.298442 0 0 1 45.298443 45.298442 44.660436 44.660436 0 0 1-45.298443 44.660437 98.25296 98.25296 0 0 0-101.44299 98.252959v525.079128A98.25296 98.25296 0 0 0 191.401869 930.85109h664.802492A98.25296 98.25296 0 0 0 957.009346 832.598131V307.519003a98.25296 98.25296 0 0 0-98.25296-98.252959 44.660436 44.660436 0 0 1-44.660436-44.660437 44.660436 44.660436 0 0 1 44.660436-45.298442 191.401869 191.401869 0 0 1 191.401869 191.401869v525.079128a191.401869 191.401869 0 0 1-191.401869 188.211838z" fill="#1296db" p-id="18876"></path></svg>