<?xml version="1.0" standalone="no"?><!DOCTYPE svg PUBLIC "-//W3C//DTD SVG 1.1//EN" "http://www.w3.org/Graphics/SVG/1.1/DTD/svg11.dtd"><svg t="1729425454197" class="icon" viewBox="0 0 1024 1024" version="1.1" xmlns="http://www.w3.org/2000/svg" p-id="13533" xmlns:xlink="http://www.w3.org/1999/xlink" width="32" height="32"><path d="M701.703005 756.642421h167.672102c18.53218 0 33.53442 14.931642 33.53442 33.357924a33.463822 33.463822 0 0 1-33.53442 33.393223h-167.672102v166.860215a33.463822 33.463822 0 0 1-33.534421 33.357924 33.463822 33.463822 0 0 1-33.53442-33.357924v-166.860215h-167.672102a33.463822 33.463822 0 0 1-33.53442-33.393223c0-18.426281 15.03754-33.357923 33.53442-33.357924h167.672102v-166.860215c0-18.461581 15.03754-33.393223 33.53442-33.393223 18.53218 0 33.53442 14.931642 33.534421 33.393223v166.860215zM170.976678 1023.682305c-19.979455 0-39.888311-3.812334-57.149712-13.660863C85.940448 994.066117 70.620513 965.403013 70.620513 929.291737V87.436589C70.620513 56.832018 87.59952 28.027716 114.921247 12.390086c31.698852-18.179186 71.092971-16.273019 108.122031 5.153711 58.596987 33.958013 642.307698 391.576132 673.794754 411.237891 26.05095 16.20242 56.408425 50.266331 56.267227 92.837396-0.070599 23.968286-9.919129 58.491089-56.479024 87.012996l-68.480816 42.323968a33.675618 33.675618 0 0 1-46.206901-10.731014 33.287325 33.287325 0 0 1 10.801613-45.959806l68.692613-42.429867c11.225206-6.883381 24.568375-17.720294 24.603675-30.428074 0.035299-13.378469-12.70778-28.592506-24.780172-36.075976C830.96937 466.446137 244.752403 107.345445 189.297062 75.223c-15.672929-9.107243-30.604571-10.907511-40.947292-4.941915a20.191251 20.191251 0 0 0-10.660416 17.155504v841.855148c0 17.3673 6.706884 21.179634 9.530835 22.838705 18.390982 10.483919 59.655969 2.929849 82.882967-10.589817 7.659968-4.483023 36.46427-21.885622 130.113551-79.670723a33.605019 33.605019 0 0 1 46.136303 10.766314 33.252025 33.252025 0 0 1-10.801613 45.959806 10740.368851 10740.368851 0 0 1-131.666724 80.553208c-20.82664 12.107691-56.973215 24.533076-92.907995 24.533075z" fill="#707070" p-id="13534"></path></svg>