<?xml version="1.0" standalone="no"?><!DOCTYPE svg PUBLIC "-//W3C//DTD SVG 1.1//EN" "http://www.w3.org/Graphics/SVG/1.1/DTD/svg11.dtd"><svg t="1729472447225" class="icon" viewBox="0 0 1024 1024" version="1.1" xmlns="http://www.w3.org/2000/svg" p-id="28869" data-spm-anchor-id="a313x.search_index.0.i6.3eaf3a81e3UVpI" xmlns:xlink="http://www.w3.org/1999/xlink" width="32" height="32"><path d="M162.56 491.94c-52.58 0-95.36-42.78-95.36-95.36V180.17c0-19.75 6.01-38.73 17.37-54.88 14.66-20.83 36.55-34.71 61.65-39.07 25.1-4.37 50.39 1.3 71.22 15.96l153.78 108.21c9 6.33 16.78 14.11 23.11 23.11 14.66 20.83 20.33 46.12 15.96 71.22-4.37 25.09-18.24 46.99-39.07 61.65l-153.78 108.2c-16.16 11.36-35.13 17.37-54.88 17.37z m0.08-349.54c-2.17 0-4.36 0.19-6.55 0.57-9.94 1.73-18.61 7.22-24.41 15.47-4.5 6.4-6.88 13.91-6.88 21.73v216.41c0 20.82 16.94 37.76 37.76 37.76 7.82 0 15.33-2.38 21.73-6.88l153.78-108.21c8.25-5.8 13.74-14.47 15.47-24.41 1.73-9.94-0.52-19.95-6.32-28.2a37.866 37.866 0 0 0-9.15-9.15l-153.78-108.2c-6.43-4.53-13.94-6.89-21.65-6.89zM927.36 920.85H96c-15.91 0-28.8-12.89-28.8-28.8s12.89-28.8 28.8-28.8h831.36c15.91 0 28.8 12.89 28.8 28.8s-12.89 28.8-28.8 28.8zM928.76 654.92H96c-15.91 0-28.8-12.89-28.8-28.8s12.89-28.8 28.8-28.8h832.76c15.91 0 28.8 12.89 28.8 28.8s-12.89 28.8-28.8 28.8zM923.6 153.77H569.72c-15.91 0-28.8-12.89-28.8-28.8s12.89-28.8 28.8-28.8H923.6c15.91 0 28.8 12.89 28.8 28.8s-12.89 28.8-28.8 28.8zM923.6 388.98H569.72c-15.91 0-28.8-12.89-28.8-28.8s12.89-28.8 28.8-28.8H923.6c15.91 0 28.8 12.89 28.8 28.8s-12.89 28.8-28.8 28.8z" fill="#1296db" p-id="28870"></path></svg>