<?xml version="1.0" standalone="no"?><!DOCTYPE svg PUBLIC "-//W3C//DTD SVG 1.1//EN" "http://www.w3.org/Graphics/SVG/1.1/DTD/svg11.dtd"><svg t="1729487462695" class="icon" viewBox="0 0 1024 1024" version="1.1" xmlns="http://www.w3.org/2000/svg" p-id="2411" xmlns:xlink="http://www.w3.org/1999/xlink" width="32" height="32"><path d="M480 192a32 32 0 0 1 32-32h384a32 32 0 0 1 0 64h-384a32 32 0 0 1-32-32zM480 405.333333a32 32 0 0 1 32-32h384a32 32 0 0 1 0 64h-384a32 32 0 0 1-32-32zM96 618.666667a32 32 0 0 1 32-32h768a32 32 0 0 1 0 64H128a32 32 0 0 1-32-32zM96 832a32 32 0 0 1 32-32h768a32 32 0 0 1 0 64H128a32 32 0 0 1-32-32zM160 227.2v142.933333L279.125333 298.666667 160 227.2z m134.4 80.64zM96 208.298667a53.333333 53.333333 0 0 1 80.768-45.738667l150.528 90.325333a53.333333 53.333333 0 0 1 0 91.477334l-150.528 90.325333A53.333333 53.333333 0 0 1 96 388.992V208.341333z" p-id="2412" fill="#2c2c2c"></path></svg>