<?xml version="1.0" standalone="no"?><!DOCTYPE svg PUBLIC "-//W3C//DTD SVG 1.1//EN" "http://www.w3.org/Graphics/SVG/1.1/DTD/svg11.dtd"><svg t="1729426305244" class="icon" viewBox="0 0 1024 1024" version="1.1" xmlns="http://www.w3.org/2000/svg" p-id="50585" xmlns:xlink="http://www.w3.org/1999/xlink" width="32" height="32"><path d="M305.067 283.733c-8.534-8.533-21.334-6.4-29.867 2.134C221.867 345.6 192 422.4 192 503.467c0 78.933 29.867 155.733 81.067 215.466 4.266 4.267 10.666 6.4 14.933 6.4 4.267 0 10.667-2.133 14.933-6.4 8.534-8.533 10.667-21.333 2.134-29.866-44.8-49.067-70.4-117.334-70.4-185.6 0-70.4 25.6-136.534 72.533-189.867 8.533-8.533 6.4-21.333-2.133-29.867z m443.733 2.134c-8.533-8.534-21.333-8.534-29.867-2.134-8.533 8.534-8.533 21.334-2.133 29.867 46.933 51.2 72.533 119.467 72.533 189.867 0 70.4-25.6 136.533-70.4 187.733-8.533 8.533-6.4 21.333 2.134 29.867 4.266 4.266 8.533 6.4 14.933 6.4s12.8-2.134 14.933-6.4C804.267 661.333 832 584.533 832 505.6c0-83.2-29.867-160-83.2-219.733z" fill="#707070" p-id="50586"></path><path d="M802.133 853.333c-6.4 0-10.666-2.133-14.933-6.4-8.533-8.533-8.533-21.333 0-29.866 17.067-14.934 32-34.134 44.8-51.2C887.467 691.2 917.333 603.733 917.333 512c0-100.267-34.133-196.267-98.133-273.067-14.933-19.2-32-34.133-49.067-51.2C761.6 179.2 759.467 166.4 768 157.867c8.533-8.534 21.333-10.667 29.867-2.134 19.2 17.067 38.4 36.267 55.466 55.467C921.6 294.4 960 401.067 960 512c0 102.4-32 198.4-91.733 279.467-14.934 21.333-32 40.533-51.2 57.6-4.267 2.133-8.534 4.266-14.934 4.266z m-565.333 0c-4.267 0-10.667-2.133-12.8-4.266-14.933-12.8-29.867-27.734-44.8-44.8-74.667-83.2-115.2-192-115.2-302.934 0-113.066 40.533-219.733 115.2-305.066 12.8-14.934 27.733-29.867 42.667-42.667 8.533-8.533 23.466-6.4 29.866 2.133 8.534 8.534 6.4 23.467-2.133 29.867-12.8 12.8-27.733 25.6-38.4 38.4-66.133 76.8-104.533 174.933-104.533 277.333 0 100.267 36.266 198.4 104.533 273.067 12.8 14.933 25.6 27.733 40.533 40.533 8.534 8.534 10.667 21.334 2.134 29.867-4.267 4.267-10.667 8.533-17.067 8.533z m270.933-192c-25.6 0-49.066-10.666-66.133-32L341.333 509.867C309.333 471.467 313.6 416 352 384c19.2-14.933 40.533-23.467 66.133-21.333 23.467 2.133 44.8 12.8 59.734 32L512 435.2l34.133-40.533c14.934-19.2 36.267-29.867 59.734-32C629.333 360.533 652.8 366.933 672 384c19.2 14.933 29.867 36.267 32 59.733 2.133 23.467-4.267 46.934-21.333 66.134L640 561.067c-8.533 8.533-21.333 10.666-29.867 2.133-8.533-8.533-10.666-21.333-2.133-29.867l42.667-51.2c8.533-8.533 12.8-21.333 10.666-34.133-2.133-12.8-6.4-23.467-17.066-32-8.534-8.533-21.334-12.8-34.134-10.667-12.8 2.134-23.466 6.4-32 17.067L512 501.333 445.867 422.4c-8.534-8.533-19.2-14.933-32-17.067-12.8-2.133-23.467 2.134-34.134 10.667-19.2 17.067-21.333 46.933-6.4 66.133L473.6 601.6c8.533 10.667 23.467 17.067 38.4 17.067 17.067 0 29.867-6.4 38.4-17.067 8.533-8.533 21.333-10.667 29.867-2.133C588.8 608 590.933 620.8 582.4 629.333c-17.067 21.334-44.8 32-72.533 32h-2.134z" fill="#707070" p-id="50587"></path></svg>