<?xml version="1.0" standalone="no"?><!DOCTYPE svg PUBLIC "-//W3C//DTD SVG 1.1//EN" "http://www.w3.org/Graphics/SVG/1.1/DTD/svg11.dtd"><svg t="1729488259818" class="icon" viewBox="0 0 1024 1024" version="1.1" xmlns="http://www.w3.org/2000/svg" p-id="53360" xmlns:xlink="http://www.w3.org/1999/xlink" width="32" height="32"><path d="M691.2 904.533333H356.266667c-119.466667 0-215.466667-96-215.466667-213.333333V339.2c0-100.266667 81.066667-181.333333 181.333333-181.333333H490.666667c17.066667 0 32 14.933333 32 32s-14.933333 32-32 32h-168.533334c-66.133333 0-117.333333 53.333333-117.333333 117.333333v352c0 83.2 68.266667 149.333333 151.466667 149.333333h337.066666c72.533333 0 130.133333-57.6 130.133334-130.133333V512c0-17.066667 14.933333-32 32-32s32 14.933333 32 32v198.4c0 108.8-87.466667 194.133333-196.266667 194.133333z" p-id="53361" fill="#1296db"></path><path d="M482.133333 603.733333c-8.533333 0-17.066667-2.133333-21.333333-8.533333-12.8-12.8-12.8-32 0-44.8L806.4 189.866667c12.8-12.8 32-12.8 44.8 0 12.8 12.8 12.8 32 0 44.8L503.466667 593.066667c-4.266667 6.4-12.8 10.666667-21.333334 10.666666z" fill="#1296db" p-id="53362"></path><path d="M840.533333 403.2c-17.066667 0-32-14.933333-32-32v-134.4h-128c-17.066667 0-32-14.933333-32-32s14.933333-32 32-32h140.8c27.733333 0 51.2 23.466667 51.2 51.2v147.2c0 17.066667-12.8 32-32 32z m-19.2-166.4z" fill="#1296db" p-id="53363"></path></svg>