<?xml version="1.0" standalone="no"?><!DOCTYPE svg PUBLIC "-//W3C//DTD SVG 1.1//EN" "http://www.w3.org/Graphics/SVG/1.1/DTD/svg11.dtd"><svg t="1729426037897" class="icon" viewBox="0 0 1024 1024" version="1.1" xmlns="http://www.w3.org/2000/svg" p-id="21556" xmlns:xlink="http://www.w3.org/1999/xlink" width="32" height="32"><path d="M691.2 938.652444H332.8c-136.448 0-247.466667-111.018667-247.466667-247.466666V332.8c0-136.448 111.018667-247.466667 247.466667-247.466667H512a42.666667 42.666667 0 1 1 0 85.333334H332.8c-89.386667 0-162.133333 72.732444-162.133333 162.133333v358.4C170.666667 780.615111 243.413333 853.333333 332.8 853.333333h358.4c89.400889 0 162.133333-72.718222 162.133333-162.133333V512a42.666667 42.666667 0 1 1 85.333334 0v179.2C938.666667 827.648 827.662222 938.666667 691.2 938.666667" fill="#707070" p-id="21557"></path><path d="M483.683556 540.302222a42.638222 42.638222 0 0 1 0-60.330666l382.151111-382.151112a42.638222 42.638222 0 0 1 60.330666 0 42.638222 42.638222 0 0 1 0 60.330667L544 540.302222a42.638222 42.638222 0 0 1-60.330667 0" fill="#707070" p-id="21558"></path><path d="M938.666667 127.985778a42.666667 42.666667 0 0 1-42.666667 42.666666H696.888889a42.666667 42.666667 0 1 1 0-85.333333h199.111111a42.666667 42.666667 0 0 1 42.666667 42.666667" fill="#707070" p-id="21559"></path><path d="M896 369.763556a42.666667 42.666667 0 0 1-42.666667-42.666667v-199.111111a42.666667 42.666667 0 0 1 85.333334 0v199.111111a42.666667 42.666667 0 0 1-42.666667 42.666667" fill="#707070" p-id="21560"></path></svg>