<?xml version="1.0" standalone="no"?><!DOCTYPE svg PUBLIC "-//W3C//DTD SVG 1.1//EN" "http://www.w3.org/Graphics/SVG/1.1/DTD/svg11.dtd"><svg t="1729488303443" class="icon" viewBox="0 0 1351 1024" version="1.1" xmlns="http://www.w3.org/2000/svg" p-id="56205" xmlns:xlink="http://www.w3.org/1999/xlink" width="42.21875" height="32"><path d="M1097.267001 32.383016c-0.258032-8.257024-3.87048-16.127-10.063248-21.803704-6.063752-5.676704-14.19176-8.644072-22.448784-8.257024-1.032128 0-1.806224 0.516064-2.838352 0.64508l-0.387048-2.967368L450.76782 87.601865h-0.258032c-0.258032 0-0.516064 0.129016-0.774096 0.129016l-2.451304 0.387048 0.129016 0.258032C432.0605 90.440217 420.707092 103.470833 420.707092 118.952753v0.258032c0 0.387048-0.129016 0.64508-0.129016 1.032128 0 0.258032 0.129016 0.387048 0.129016 0.64508v643.273781C385.098676 738.874638 337.104724 723.521734 283.305051 723.521734c-111.856873 0-199.458738 66.056193-199.458737 150.174625 0 84.247449 87.601865 150.303641 199.458737 150.303641 111.856873 0 199.458738-66.056193 199.458738-150.303641V145.917097l552.188484-79.215824v612.180924c-35.4794-25.15812-83.473353-40.511024-137.273025-40.511024-111.856873 0-199.458738 66.056193-199.458738 150.174625 0 84.247449 87.601865 150.303641 199.458738 150.303641s199.458738-66.056193 199.458737-150.303641V33.673176c0-0.387048 0.258032-0.774096 0.129016-1.29016zM283.305051 961.814288c-74.442233 0-137.273025-40.382008-137.273025-88.117929s62.830792-88.117929 137.273025-88.117929S420.578076 825.960438 420.578076 873.696359c0.129016 47.864936-62.830792 88.117929-137.273025 88.117929z m614.374197-85.279577c-74.442233 0-137.273025-40.252992-137.273025-88.117929 0-47.73592 62.830792-88.117929 137.273025-88.117929s137.273025 40.252992 137.273025 88.117929c0 47.864936-62.830792 88.117929-137.273025 88.117929z" p-id="56206" fill="#2c2c2c"></path></svg>