<?xml version="1.0" standalone="no"?><!DOCTYPE svg PUBLIC "-//W3C//DTD SVG 1.1//EN" "http://www.w3.org/Graphics/SVG/1.1/DTD/svg11.dtd"><svg t="1729521771088" class="icon" viewBox="0 0 1024 1024" version="1.1" xmlns="http://www.w3.org/2000/svg" p-id="69273" xmlns:xlink="http://www.w3.org/1999/xlink" width="32" height="32"><path d="M820.1472 128a52.0704 52.0704 0 0 1 37.0688 15.2576l125.696 125.184c20.5312 20.48 20.6592 53.76 0.3072 74.3936a52.1984 52.1984 0 0 1-74.0352 0.3072L870.4 304.5376V844.8a51.2 51.2 0 0 1-47.36 51.072L819.2 896a51.2 51.2 0 0 1-51.2-51.2V179.2a51.2 51.2 0 0 1 51.712-51.2zM640 755.2a51.2 51.2 0 1 1 0 102.4H76.8a51.2 51.2 0 1 1 0-102.4z m0-307.2a51.2 51.2 0 1 1 0 102.4H76.8a51.2 51.2 0 1 1 0-102.4z m0-307.2a51.2 51.2 0 1 1 0 102.4H76.8a51.2 51.2 0 1 1 0-102.4z" p-id="69274" fill="#1296db"></path></svg>