<?xml version="1.0" standalone="no"?><!DOCTYPE svg PUBLIC "-//W3C//DTD SVG 1.1//EN" "http://www.w3.org/Graphics/SVG/1.1/DTD/svg11.dtd"><svg t="1729426550868" class="icon" viewBox="0 0 1024 1024" version="1.1" xmlns="http://www.w3.org/2000/svg" p-id="58579" xmlns:xlink="http://www.w3.org/1999/xlink" width="32" height="32"><path d="M912.3 537.5c0-121.6-92.3-222.7-211.9-234.6C648.1 236 567.2 196.3 482 196.3c-136.7 0-252 99.3-272.8 232.9-57.2 32.2-93.5 93.8-93.5 160.1 0 101.6 82.6 184.2 184.2 184.2h123.9v-42.7H299.9c-78 0-141.5-63.5-141.5-141.5 0-53.9 31.3-103.8 79.7-127l10.6-5.1 1.3-11.7C263.5 327.7 363.1 239 482 239c60.8 0 119 23.8 162.2 65.2-28.8 4-57 13.4-82.9 27.6l20.6 37.4c29.1-16.1 61.8-24.6 94.3-24.6 106.5 0 193.1 86.6 193.3 193-0.1 106.5-86.8 193-193.3 193H600v42.7h76.4v0.5c130.1 0 236-105.9 236-236v-0.3c-0.1 0.2-0.1 0.1-0.1 0z" p-id="58580" fill="#1296db"></path><path d="M700.7 630.5l30.2-30.2-154.7-154.7c-34.6-34.6-90.8-34.6-125.4 0L296.1 600.3l30.2 30.2L481 475.8c3.4-3.4 7.1-6.1 11.1-8.2v362.5h42.7V467.6c4 2.1 7.8 4.8 11.1 8.2l154.8 154.7z" p-id="58581" fill="#1296db"></path></svg>