<?xml version="1.0" standalone="no"?><!DOCTYPE svg PUBLIC "-//W3C//DTD SVG 1.1//EN" "http://www.w3.org/Graphics/SVG/1.1/DTD/svg11.dtd"><svg t="1720216814700" class="icon" viewBox="0 0 1024 1024" version="1.1" xmlns="http://www.w3.org/2000/svg" p-id="9637" xmlns:xlink="http://www.w3.org/1999/xlink" width="32" height="32"><path d="M682.666667 757.333333a32 32 0 0 0-32 32 32 32 0 0 0 32 32h213.333333a32 32 0 0 0 32-32 32 32 0 0 0-32-32z m107.733333-106.666666a32 32 0 0 0-32 32v213.333333a32 32 0 0 0 32 32 32 32 0 0 0 32-32V682.666667a32 32 0 0 0-32-32zM410.773333 334.933333A32 32 0 0 0 394.666667 362.666667v298.666666a32 32 0 0 0 48.128 27.626667l256-149.333333a32 32 0 0 0 0-55.253334l-256-149.333333a32 32 0 0 0-32.042667-0.128zM458.666667 418.346667L619.157333 512 458.666667 605.632V512zM512 53.333333C259.882667 53.333333 53.333333 259.882667 53.333333 512S259.882667 970.666667 512 970.666667a32 32 0 0 0 32-32 32 32 0 0 0-32-32C294.784 906.666667 117.333333 729.216 117.333333 512S294.784 117.333333 512 117.333333 906.666667 294.784 906.666667 512a32 32 0 0 0 32 32 32 32 0 0 0 32-32c0-252.117333-206.549333-458.666667-458.666667-458.666667z" p-id="9638" fill="#707070"></path></svg>