<?xml version="1.0" standalone="no"?><!DOCTYPE svg PUBLIC "-//W3C//DTD SVG 1.1//EN" "http://www.w3.org/Graphics/SVG/1.1/DTD/svg11.dtd"><svg t="1720093108549" class="icon" viewBox="0 0 1169 1024" version="1.1" xmlns="http://www.w3.org/2000/svg" p-id="20062" xmlns:xlink="http://www.w3.org/1999/xlink" width="36.53125" height="32"><path d="M818.870475 8.238134A347.649236 347.649236 0 0 0 584.907482 97.209976 351.768302 351.768302 0 0 0 164.762671 62.609815l59.314562 46.957361a277.625101 277.625101 0 0 1 335.292035 60.962188l27.185841 31.304908 27.18584-31.304908A272.68222 272.68222 0 0 1 818.870475 78.262269a266.915527 266.915527 0 0 1 270.21078 261.972647 264.444087 264.444087 0 0 1-61.786002 164.76267L890.542237 634.336283l57.666934 45.309735 129.338697-120.27675a329.525342 329.525342 0 0 0 82.381336-215.015286A337.763475 337.763475 0 0 0 818.870475 8.238134zM588.202735 906.19469L142.51971 509.116653a264.444087 264.444087 0 0 1-62.609815-164.762671 254.558327 254.558327 0 0 1 28.833468-116.981496l-56.843122-49.428801a322.111022 322.111022 0 0 0-43.662107 164.762671 329.525342 329.525342 0 0 0 82.381335 215.015285l507.469027 457.216412 49.428801-51.076428 184.534191-172.176991L771.0893 741.432019l-182.886565 164.762671z m378.954144-164.762671L102.976669 58.490748C77.438455 38.719228 45.309735 34.600161 32.128721 49.428801s0 44.485921 23.066774 65.081255l865.004022 686.236525c25.538214 20.595334 57.666935 24.714401 70.847949 9.061947s2.47144-43.662108-23.066774-68.376509z" fill="#1296db" p-id="20063"></path></svg>