<?xml version="1.0" standalone="no"?><!DOCTYPE svg PUBLIC "-//W3C//DTD SVG 1.1//EN" "http://www.w3.org/Graphics/SVG/1.1/DTD/svg11.dtd"><svg t="1720092857030" class="icon" viewBox="0 0 1024 1024" version="1.1" xmlns="http://www.w3.org/2000/svg" p-id="7991" xmlns:xlink="http://www.w3.org/1999/xlink" width="32" height="32"><path d="M885.76 911.36h35.84c20.48 0 35.84-15.36 35.84-35.84V128c0-20.48-15.36-35.84-35.84-35.84h-35.84c-20.48 0-35.84 15.36-35.84 35.84v752.64c5.12 15.36 20.48 30.72 35.84 30.72zM76.8 880.64c20.48 30.72 61.44 40.96 92.16 20.48l552.96-332.8c10.24-5.12 15.36-15.36 20.48-20.48 20.48-30.72 10.24-71.68-20.48-92.16L168.96 122.88c-10.24-10.24-20.48-10.24-30.72-10.24-35.84 0-66.56 30.72-66.56 66.56v665.6c-5.12 10.24 0 25.6 5.12 35.84z" p-id="7992" fill="#ffffff"></path></svg>