<?xml version="1.0" standalone="no"?><!DOCTYPE svg PUBLIC "-//W3C//DTD SVG 1.1//EN" "http://www.w3.org/Graphics/SVG/1.1/DTD/svg11.dtd"><svg t="1720418998456" class="icon" viewBox="0 0 1024 1024" version="1.1" xmlns="http://www.w3.org/2000/svg" p-id="6000" xmlns:xlink="http://www.w3.org/1999/xlink" width="32" height="32"><path d="M295.349 143.29c-22.906-13.361-53.447-26.723-78.262-11.453-19.088 11.453-22.906 30.54-22.906 49.629v616.547c0 20.997 1.909 40.085 20.997 51.538 22.906 15.271 51.538 3.817 72.534-9.544l505.836-303.502 1.909-1.909c45.811-26.723 45.811-62.992 0-89.714l-500.109-301.593zM323.983 95.571l500.109 301.593c83.988 49.629 80.17 135.526 0 185.154v0l-507.744 305.41c-40.085 22.906-87.805 36.267-131.708 9.544-34.359-22.906-45.811-59.173-45.811-99.259v-616.547c0-38.176 13.361-74.443 47.721-97.349 45.811-28.632 95.441-13.361 137.435 11.453z" p-id="6001" fill="#ffffff"></path></svg>