<?xml version="1.0" standalone="no"?><!DOCTYPE svg PUBLIC "-//W3C//DTD SVG 1.1//EN" "http://www.w3.org/Graphics/SVG/1.1/DTD/svg11.dtd"><svg t="1720419032823" class="icon" viewBox="0 0 1024 1024" version="1.1" xmlns="http://www.w3.org/2000/svg" p-id="7961" xmlns:xlink="http://www.w3.org/1999/xlink" width="32" height="32"><path d="M903.04 347.093333c-48.213333-44.586667-113.066667-64-192-58.88a187.946667 187.946667 0 0 0-149.333333 96 21.333333 21.333333 0 0 0 36.48 21.333334 145.92 145.92 0 0 1 113.493333-75.306667c67.84-4.693333 121.6 11.093333 159.786667 47.146667C938.666667 439.68 938.666667 544 938.666667 545.28c0 157.653333-139.52 193.493333-157.866667 197.546667h-46.72a21.333333 21.333333 0 0 0 0 42.666666h52.693333C789.333333 784.853333 981.333333 746.666667 981.333333 545.706667c0-5.12 0-123.52-78.293333-198.613334z" fill="#ffffff" p-id="7962"></path><path d="M273.066667 742.4H203.306667a142.506667 142.506667 0 0 1-116.906667-131.626667c-1.493333-66.56 15.146667-116.48 49.28-149.333333a184.106667 184.106667 0 0 1 125.44-44.586667l21.333333 1.493334v-21.333334c1.706667-88.533333 25.386667-155.733333 70.186667-198.4a194.773333 194.773333 0 0 1 128-52.266666 183.253333 183.253333 0 0 1 176.853333 90.88 21.333333 21.333333 0 0 0 36.053334-22.826667 225.066667 225.066667 0 0 0-213.333334-110.72 234.666667 234.666667 0 0 0-156.16 64c-49.92 47.786667-77.866667 117.76-82.986666 208.213333a218.026667 218.026667 0 0 0-135.68 55.893334c-42.666667 41.386667-64 102.186667-62.72 180.906666a184.32 184.32 0 0 0 154.026666 172.8h75.306667a21.333333 21.333333 0 1 0 0-42.666666z" fill="#ffffff" p-id="7963"></path><path d="M527.146667 505.173333a21.333333 21.333333 0 0 0-30.08 0l-149.333334 149.333334a21.333333 21.333333 0 0 0 30.08 30.08L490.666667 571.733333v327.893334a21.333333 21.333333 0 0 0 42.666666 0V571.733333l112.853334 112.853334a21.333333 21.333333 0 0 0 30.293333-30.08z" fill="#ffffff" p-id="7964"></path></svg>