<?xml version="1.0" standalone="no"?><!DOCTYPE svg PUBLIC "-//W3C//DTD SVG 1.1//EN" "http://www.w3.org/Graphics/SVG/1.1/DTD/svg11.dtd"><svg t="1719902081702" class="icon" viewBox="0 0 1024 1024" version="1.1" xmlns="http://www.w3.org/2000/svg" p-id="1942" xmlns:xlink="http://www.w3.org/1999/xlink" width="32" height="32"><path d="M720.58 871.073H299.1c-17.673 0-32-14.327-32-32v-290.03a31.999 31.999 0 0 1-32.578-7.785L110.928 417.664c-12.497-12.497-12.497-32.758 0-45.255l214.375-214.375c12.497-12.497 32.758-12.497 45.255 0s12.497 32.758 0 45.255L178.81 395.037l78.338 78.338 19.324-19.324a31.995 31.995 0 0 1 34.873-6.937 31.999 31.999 0 0 1 19.754 29.564v330.395h357.48V469.279a32 32 0 0 1 54.627-22.627l25.724 25.723 78.338-78.338-191.747-191.748c-12.497-12.497-12.497-32.758 0-45.255 12.496-12.497 32.758-12.497 45.254 0l214.376 214.375c12.496 12.497 12.496 32.758 0 45.255L791.559 540.257a32 32 0 0 1-38.979 4.881v293.936c0 17.672-14.327 31.999-32 31.999z" fill="#1296db" p-id="1943"></path><path d="M513.408 314.783c-86.482 0.003-146.146-70.811-171.805-101.261-0.832-0.987-1.726-2.048-2.598-3.077-10.606-5.211-17.907-16.122-17.907-28.737 0-14.338 8.456-26.69 21.542-31.469 7.734-2.825 23.01-5.133 38.415 11.137 2.724 2.877 5.71 6.42 9.49 10.906 21.549 25.575 66.15 78.5 122.932 78.5 0.616 0 1.226-0.006 1.845-0.019 41.359-0.836 84.754-30.165 128.977-87.171 10.833-13.964 30.936-16.501 44.898-5.67 13.964 10.833 16.502 30.935 5.67 44.898-56.649 73.025-116.622 110.684-178.252 111.929-1.071 0.023-2.143 0.034-3.207 0.034zM385.099 181.708v0z" fill="#1296db" p-id="1944"></path></svg>