<?xml version="1.0" standalone="no"?><!DOCTYPE svg PUBLIC "-//W3C//DTD SVG 1.1//EN" "http://www.w3.org/Graphics/SVG/1.1/DTD/svg11.dtd"><svg t="1720419465406" class="icon" viewBox="0 0 1024 1024" version="1.1" xmlns="http://www.w3.org/2000/svg" p-id="14006" xmlns:xlink="http://www.w3.org/1999/xlink" width="32" height="32"><path d="M209.3056 267.264a33.28 33.28 0 0 1 41.5744-12.6464l4.352 2.3552 64.5632 40.8576L407.6544 173.568a33.28 33.28 0 0 1 42.1376-10.5472l4.2496 2.56a33.28 33.28 0 0 1 10.496 42.1888l-2.56 4.1984-106.0864 150.016a33.28 33.28 0 0 1-40.3456 11.3664l-4.608-2.4576L219.648 313.2416a33.28 33.28 0 0 1-10.3424-45.9264zM500.736 278.016a33.28 33.28 0 0 1 27.8528-32.8192l5.4272-0.4608h296.3968a33.28 33.28 0 0 1 5.376 66.1504l-5.376 0.4096h-296.448a33.28 33.28 0 0 1-33.28-33.28zM197.12 537.8048a33.28 33.28 0 0 1 27.648-33.024l5.4272-0.4608 600.0128-3.584a33.28 33.28 0 0 1 5.7856 66.0992l-5.4272 0.512-599.9616 3.5328a33.28 33.28 0 0 1-33.4848-33.0752zM197.12 793.8048a33.28 33.28 0 0 1 27.648-33.024l5.4272-0.4608 600.0128-3.584a33.28 33.28 0 0 1 5.7856 66.0992l-5.4272 0.512-599.9616 3.5328a33.28 33.28 0 0 1-33.4848-33.0752z" fill="#707070" p-id="14007"></path></svg>