<?xml version="1.0" standalone="no"?><!DOCTYPE svg PUBLIC "-//W3C//DTD SVG 1.1//EN" "http://www.w3.org/Graphics/SVG/1.1/DTD/svg11.dtd"><svg t="1725100063521" class="icon" viewBox="0 0 1024 1024" version="1.1" xmlns="http://www.w3.org/2000/svg" p-id="90101" xmlns:xlink="http://www.w3.org/1999/xlink" width="32" height="32"><path d="M512 972.8C260.266667 972.8 55.466667 763.733333 55.466667 512S260.266667 55.466667 512 55.466667 972.8 260.266667 972.8 512c0 59.733333-12.8 115.2-34.133333 170.666667-4.266667 8.533333-12.8 17.066667-21.333334 17.066666-8.533333 4.266667-21.333333 0-25.6-4.266666-51.2-34.133333-119.466667-34.133333-166.4 4.266666-34.133333 25.6-51.2 64-51.2 106.666667 0 25.6 8.533333 51.2 21.333334 72.533333 0 4.266667 4.266667 4.266667 4.266666 4.266667 8.533333 8.533333 8.533333 17.066667 8.533334 29.866667s-17.066667 21.333333-25.6 25.6c-55.466667 21.333333-110.933333 34.133333-170.666667 34.133333z m0-853.333333c-217.6 0-396.8 174.933333-396.8 396.8s174.933333 396.8 396.8 396.8c38.4 0 76.8-4.266667 110.933333-17.066667-12.8-25.6-17.066667-51.2-17.066666-81.066667 0-64 29.866667-119.466667 76.8-157.866666 59.733333-46.933333 140.8-55.466667 204.8-29.866667 12.8-34.133333 17.066667-72.533333 17.066666-110.933333 4.266667-221.866667-174.933333-396.8-392.533333-396.8z" fill="#292D32" p-id="90102"></path><path d="M465.066667 682.666667c-17.066667 0-34.133333-4.266667-46.933334-12.8-29.866667-17.066667-51.2-55.466667-51.2-102.4v-119.466667c0-46.933333 17.066667-85.333333 51.2-102.4 29.866667-17.066667 72.533333-17.066667 115.2 8.533333l102.4 59.733334c38.4 21.333333 64 59.733333 64 93.866666 0 38.4-21.333333 72.533333-64 93.866667l-102.4 59.733333c-25.6 17.066667-46.933333 21.333333-68.266666 21.333334z m0-281.6c-4.266667 0-8.533333 0-12.8 4.266666-12.8 8.533333-17.066667 25.6-17.066667 46.933334v119.466666c0 21.333333 8.533333 42.666667 17.066667 46.933334 12.8 8.533333 29.866667 4.266667 51.2-8.533334l102.4-59.733333c21.333333-12.8 29.866667-25.6 29.866666-38.4 0-12.8-12.8-25.6-29.866666-38.4l-102.4-59.733333c-17.066667-8.533333-29.866667-12.8-38.4-12.8zM810.666667 1015.466667c-72.533333 0-136.533333-38.4-174.933334-98.133334-17.066667-29.866667-29.866667-68.266667-29.866666-102.4 0-64 29.866667-119.466667 76.8-157.866666 34.133333-29.866667 81.066667-42.666667 128-42.666667 110.933333 0 204.8 89.6 204.8 204.8 0 38.4-8.533333 72.533333-29.866667 106.666667-8.533333 17.066667-25.6 34.133333-38.4 46.933333-38.4 21.333333-85.333333 42.666667-136.533333 42.666667z m0-341.333334c-29.866667 0-59.733333 8.533333-85.333334 29.866667-34.133333 25.6-51.2 64-51.2 106.666667 0 25.6 8.533333 51.2 21.333334 72.533333 25.6 42.666667 68.266667 68.266667 119.466666 68.266667 34.133333 0 64-12.8 89.6-34.133334 12.8-8.533333 21.333333-21.333333 25.6-34.133333 12.8-21.333333 21.333333-46.933333 21.333334-72.533333 0-76.8-64-136.533333-140.8-136.533334z" fill="#292D32" p-id="90103"></path><path d="M874.666667 840.533333h-128c-17.066667 0-34.133333-12.8-34.133334-34.133333s12.8-34.133333 34.133334-34.133333h128c17.066667 0 34.133333 12.8 34.133333 34.133333s-17.066667 34.133333-34.133333 34.133333z" fill="#292D32" p-id="90104"></path><path d="M810.666667 908.8c-17.066667 0-34.133333-12.8-34.133334-34.133333v-128c0-17.066667 12.8-34.133333 34.133334-34.133334s34.133333 12.8 34.133333 34.133334v128c0 17.066667-17.066667 34.133333-34.133333 34.133333z" fill="#292D32" p-id="90105"></path></svg>