<?xml version="1.0" standalone="no"?><!DOCTYPE svg PUBLIC "-//W3C//DTD SVG 1.1//EN" "http://www.w3.org/Graphics/SVG/1.1/DTD/svg11.dtd"><svg t="1720419420386" class="icon" viewBox="0 0 1024 1024" version="1.1" xmlns="http://www.w3.org/2000/svg" p-id="10432" xmlns:xlink="http://www.w3.org/1999/xlink" width="32" height="32"><path d="M375 898c-19.8 0-36-16.2-36-36V162c0-19.8 16.2-36 36-36s36 16.2 36 36v700c0 19.8-16.2 36-36 36z" fill="#8a8a8a" p-id="10433"></path><path d="M398.2 889.6c-15.2 12.7-38 10.7-50.7-4.4L136.6 633.9c-12.7-15.2-10.7-38 4.4-50.7 15.2-12.7 38-10.7 50.7 4.4l210.8 251.3c12.8 15.2 10.8 38-4.3 50.7zM649 126c19.8 0 36 16.2 36 36v700c0 19.8-16.2 36-36 36s-36-16.2-36-36V162c0-19.8 16.2-36 36-36z" fill="#8a8a8a" p-id="10434"></path><path d="M625.8 134.4c15.2-12.7 38-10.7 50.7 4.4l210.8 251.3c12.7 15.2 10.7 38-4.4 50.7-15.2 12.7-38 10.7-50.7-4.4L621.4 185.1c-12.7-15.2-10.7-38 4.4-50.7z" fill="#8a8a8a" p-id="10435"></path></svg>