<?xml version="1.0" standalone="no"?><!DOCTYPE svg PUBLIC "-//W3C//DTD SVG 1.1//EN" "http://www.w3.org/Graphics/SVG/1.1/DTD/svg11.dtd"><svg class="icon" width="200px" height="200.00px" viewBox="0 0 1024 1024" version="1.1" xmlns="http://www.w3.org/2000/svg"><path fill="#1296db" d="M984.36129 0H39.63871C17.744929 0 0 17.744929 0 39.63871v944.72258c0 21.893781 17.744929 39.63871 39.63871 39.63871h944.72258c21.893781 0 39.63871-17.744929 39.63871-39.63871V39.63871c0-21.893781-17.744929-39.63871-39.63871-39.63871z m-14.151019 722.745806C910.369032 852.073703 794.148335 955.055071 656.654865 994.244542c-80.360877 24.655277-166.826116 28.050994-249.023588 10.596748-119.206813-24.523148-228.305755-94.683665-300.2368-192.842322-82.104981-108.068335-114.846555-251.058374-91.961806-384.469058 20.916026-130.081032 96.6656-249.76351 204.192206-325.645213C288.226271 51.688877 370.357677 21.80129 454.378529 11.336671c122.338271-13.648929 249.895639 17.665652 349.692697 90.415897 88.645368 63.514426 157.656361 155.885832 188.970942 260.769858 37.022555 117.515561 28.117058 248.270452-22.818684 360.210168z"  /><path fill="#1296db" d="M715.901523 170.565368c-74.111174-44.897445-163.232206-63.58049-249.287846-53.869007-141.087381 14.811665-269.463948 112.005781-322.44769 243.579871-35.463432 87.020181-40.074735 187.200413-9.51329 276.321445 29.345858 94.485471 98.422916 174.634942 184.082168 223.13951 93.943742 52.442013 209.345239 63.514426 312.128412 32.133781 81.312206-26.016206 154.73631-78.048619 203.914736-148.077007 70.371923-94.6176 91.763613-222.254245 61.202168-335.620955-25.606606-98.832516-92.992413-185.165626-180.078658-237.607638z m-16.238658 392.819613c-0.951329 26.082271 3.395716 53.181935-5.364439 78.392154-25.064877 49.852284-94.551535 75.472103-144.073497 46.866168-23.571819-13.992465-31.592052-45.914839-18.683045-69.830193 23.703948-45.980903 83.135587-65.958813 131.508026-51.279278 0.343535-65.073548-0.066065-130.213161 0.277471-195.352774-77.982555 12.367277-154.802374 31.03711-232.784929 43.404387-0.132129 83.545187 0.198194 167.037523-0.132129 250.58271 3.395716 59.365574-62.906632 98.356852-116.352826 92.239277-34.102503-0.951329-67.795406-34.578168-56.577652-69.698064 17.797781-54.4768 84.364387-79.066013 136.674271-63.104826-0.132129-91.155819-0.198194-182.311639 0-273.401394-0.951329-14.600258 6.249703-32.873703 22.144826-35.384154 84.972181-18.207381 170.829626-32.133781 255.881084-49.997626 8.826219-2.986116 17.599587-0.475665 26.016206 2.510451 3.527845 97.881187 0.541729 196.039845 1.493058 294.053162z"  /></svg>